%TF.GenerationSoftware,KiCad,Pcbnew,9.0.1*%
%TF.CreationDate,2025-05-27T23:19:41-06:00*%
%TF.ProjectId,PCB Board,50434220-426f-4617-9264-2e6b69636164,06*%
%TF.SameCoordinates,Original*%
%TF.FileFunction,Legend,Bot*%
%TF.FilePolarity,Positive*%
%FSLAX46Y46*%
G04 Gerber Fmt 4.6, Leading zero omitted, Abs format (unit mm)*
G04 Created by KiCad (PCBNEW 9.0.1) date 2025-05-27 23:19:41*
%MOMM*%
%LPD*%
G01*
G04 APERTURE LIST*
%ADD10C,0.100000*%
%ADD11C,0.150000*%
%ADD12C,0.300000*%
%ADD13C,0.400000*%
%ADD14C,0.152400*%
%TA.AperFunction,Profile*%
%ADD15C,0.038100*%
%TD*%
G04 APERTURE END LIST*
D10*
D11*
X299989000Y-253002200D02*
X407989000Y-253002200D01*
X407989000Y-285002200D01*
X299989000Y-285002200D01*
X299989000Y-253002200D01*
D10*
D11*
X10000000Y-10000000D02*
X409989000Y-10000000D01*
X409989000Y-287002200D01*
X10000000Y-287002200D01*
X10000000Y-10000000D01*
D10*
D11*
X12000000Y-12000000D02*
X407989000Y-12000000D01*
X407989000Y-285002200D01*
X12000000Y-285002200D01*
X12000000Y-12000000D01*
D10*
D11*
X60000000Y-12000000D02*
X60000000Y-10000000D01*
D10*
D11*
X110000000Y-12000000D02*
X110000000Y-10000000D01*
D10*
D11*
X160000000Y-12000000D02*
X160000000Y-10000000D01*
D10*
D11*
X210000000Y-12000000D02*
X210000000Y-10000000D01*
D10*
D11*
X260000000Y-12000000D02*
X260000000Y-10000000D01*
D10*
D11*
X310000000Y-12000000D02*
X310000000Y-10000000D01*
D10*
D11*
X360000000Y-12000000D02*
X360000000Y-10000000D01*
D10*
D11*
X36089160Y-11593604D02*
X35346303Y-11593604D01*
X35717731Y-11593604D02*
X35717731Y-10293604D01*
X35717731Y-10293604D02*
X35593922Y-10479319D01*
X35593922Y-10479319D02*
X35470112Y-10603128D01*
X35470112Y-10603128D02*
X35346303Y-10665033D01*
D10*
D11*
X85346303Y-10417414D02*
X85408207Y-10355509D01*
X85408207Y-10355509D02*
X85532017Y-10293604D01*
X85532017Y-10293604D02*
X85841541Y-10293604D01*
X85841541Y-10293604D02*
X85965350Y-10355509D01*
X85965350Y-10355509D02*
X86027255Y-10417414D01*
X86027255Y-10417414D02*
X86089160Y-10541223D01*
X86089160Y-10541223D02*
X86089160Y-10665033D01*
X86089160Y-10665033D02*
X86027255Y-10850747D01*
X86027255Y-10850747D02*
X85284398Y-11593604D01*
X85284398Y-11593604D02*
X86089160Y-11593604D01*
D10*
D11*
X135284398Y-10293604D02*
X136089160Y-10293604D01*
X136089160Y-10293604D02*
X135655826Y-10788842D01*
X135655826Y-10788842D02*
X135841541Y-10788842D01*
X135841541Y-10788842D02*
X135965350Y-10850747D01*
X135965350Y-10850747D02*
X136027255Y-10912652D01*
X136027255Y-10912652D02*
X136089160Y-11036461D01*
X136089160Y-11036461D02*
X136089160Y-11345985D01*
X136089160Y-11345985D02*
X136027255Y-11469795D01*
X136027255Y-11469795D02*
X135965350Y-11531700D01*
X135965350Y-11531700D02*
X135841541Y-11593604D01*
X135841541Y-11593604D02*
X135470112Y-11593604D01*
X135470112Y-11593604D02*
X135346303Y-11531700D01*
X135346303Y-11531700D02*
X135284398Y-11469795D01*
D10*
D11*
X185965350Y-10726938D02*
X185965350Y-11593604D01*
X185655826Y-10231700D02*
X185346303Y-11160271D01*
X185346303Y-11160271D02*
X186151064Y-11160271D01*
D10*
D11*
X236027255Y-10293604D02*
X235408207Y-10293604D01*
X235408207Y-10293604D02*
X235346303Y-10912652D01*
X235346303Y-10912652D02*
X235408207Y-10850747D01*
X235408207Y-10850747D02*
X235532017Y-10788842D01*
X235532017Y-10788842D02*
X235841541Y-10788842D01*
X235841541Y-10788842D02*
X235965350Y-10850747D01*
X235965350Y-10850747D02*
X236027255Y-10912652D01*
X236027255Y-10912652D02*
X236089160Y-11036461D01*
X236089160Y-11036461D02*
X236089160Y-11345985D01*
X236089160Y-11345985D02*
X236027255Y-11469795D01*
X236027255Y-11469795D02*
X235965350Y-11531700D01*
X235965350Y-11531700D02*
X235841541Y-11593604D01*
X235841541Y-11593604D02*
X235532017Y-11593604D01*
X235532017Y-11593604D02*
X235408207Y-11531700D01*
X235408207Y-11531700D02*
X235346303Y-11469795D01*
D10*
D11*
X285965350Y-10293604D02*
X285717731Y-10293604D01*
X285717731Y-10293604D02*
X285593922Y-10355509D01*
X285593922Y-10355509D02*
X285532017Y-10417414D01*
X285532017Y-10417414D02*
X285408207Y-10603128D01*
X285408207Y-10603128D02*
X285346303Y-10850747D01*
X285346303Y-10850747D02*
X285346303Y-11345985D01*
X285346303Y-11345985D02*
X285408207Y-11469795D01*
X285408207Y-11469795D02*
X285470112Y-11531700D01*
X285470112Y-11531700D02*
X285593922Y-11593604D01*
X285593922Y-11593604D02*
X285841541Y-11593604D01*
X285841541Y-11593604D02*
X285965350Y-11531700D01*
X285965350Y-11531700D02*
X286027255Y-11469795D01*
X286027255Y-11469795D02*
X286089160Y-11345985D01*
X286089160Y-11345985D02*
X286089160Y-11036461D01*
X286089160Y-11036461D02*
X286027255Y-10912652D01*
X286027255Y-10912652D02*
X285965350Y-10850747D01*
X285965350Y-10850747D02*
X285841541Y-10788842D01*
X285841541Y-10788842D02*
X285593922Y-10788842D01*
X285593922Y-10788842D02*
X285470112Y-10850747D01*
X285470112Y-10850747D02*
X285408207Y-10912652D01*
X285408207Y-10912652D02*
X285346303Y-11036461D01*
D10*
D11*
X335284398Y-10293604D02*
X336151064Y-10293604D01*
X336151064Y-10293604D02*
X335593922Y-11593604D01*
D10*
D11*
X385593922Y-10850747D02*
X385470112Y-10788842D01*
X385470112Y-10788842D02*
X385408207Y-10726938D01*
X385408207Y-10726938D02*
X385346303Y-10603128D01*
X385346303Y-10603128D02*
X385346303Y-10541223D01*
X385346303Y-10541223D02*
X385408207Y-10417414D01*
X385408207Y-10417414D02*
X385470112Y-10355509D01*
X385470112Y-10355509D02*
X385593922Y-10293604D01*
X385593922Y-10293604D02*
X385841541Y-10293604D01*
X385841541Y-10293604D02*
X385965350Y-10355509D01*
X385965350Y-10355509D02*
X386027255Y-10417414D01*
X386027255Y-10417414D02*
X386089160Y-10541223D01*
X386089160Y-10541223D02*
X386089160Y-10603128D01*
X386089160Y-10603128D02*
X386027255Y-10726938D01*
X386027255Y-10726938D02*
X385965350Y-10788842D01*
X385965350Y-10788842D02*
X385841541Y-10850747D01*
X385841541Y-10850747D02*
X385593922Y-10850747D01*
X385593922Y-10850747D02*
X385470112Y-10912652D01*
X385470112Y-10912652D02*
X385408207Y-10974557D01*
X385408207Y-10974557D02*
X385346303Y-11098366D01*
X385346303Y-11098366D02*
X385346303Y-11345985D01*
X385346303Y-11345985D02*
X385408207Y-11469795D01*
X385408207Y-11469795D02*
X385470112Y-11531700D01*
X385470112Y-11531700D02*
X385593922Y-11593604D01*
X385593922Y-11593604D02*
X385841541Y-11593604D01*
X385841541Y-11593604D02*
X385965350Y-11531700D01*
X385965350Y-11531700D02*
X386027255Y-11469795D01*
X386027255Y-11469795D02*
X386089160Y-11345985D01*
X386089160Y-11345985D02*
X386089160Y-11098366D01*
X386089160Y-11098366D02*
X386027255Y-10974557D01*
X386027255Y-10974557D02*
X385965350Y-10912652D01*
X385965350Y-10912652D02*
X385841541Y-10850747D01*
D10*
D11*
X60000000Y-285002200D02*
X60000000Y-287002200D01*
D10*
D11*
X110000000Y-285002200D02*
X110000000Y-287002200D01*
D10*
D11*
X160000000Y-285002200D02*
X160000000Y-287002200D01*
D10*
D11*
X210000000Y-285002200D02*
X210000000Y-287002200D01*
D10*
D11*
X260000000Y-285002200D02*
X260000000Y-287002200D01*
D10*
D11*
X310000000Y-285002200D02*
X310000000Y-287002200D01*
D10*
D11*
X360000000Y-285002200D02*
X360000000Y-287002200D01*
D10*
D11*
X36089160Y-286595804D02*
X35346303Y-286595804D01*
X35717731Y-286595804D02*
X35717731Y-285295804D01*
X35717731Y-285295804D02*
X35593922Y-285481519D01*
X35593922Y-285481519D02*
X35470112Y-285605328D01*
X35470112Y-285605328D02*
X35346303Y-285667233D01*
D10*
D11*
X85346303Y-285419614D02*
X85408207Y-285357709D01*
X85408207Y-285357709D02*
X85532017Y-285295804D01*
X85532017Y-285295804D02*
X85841541Y-285295804D01*
X85841541Y-285295804D02*
X85965350Y-285357709D01*
X85965350Y-285357709D02*
X86027255Y-285419614D01*
X86027255Y-285419614D02*
X86089160Y-285543423D01*
X86089160Y-285543423D02*
X86089160Y-285667233D01*
X86089160Y-285667233D02*
X86027255Y-285852947D01*
X86027255Y-285852947D02*
X85284398Y-286595804D01*
X85284398Y-286595804D02*
X86089160Y-286595804D01*
D10*
D11*
X135284398Y-285295804D02*
X136089160Y-285295804D01*
X136089160Y-285295804D02*
X135655826Y-285791042D01*
X135655826Y-285791042D02*
X135841541Y-285791042D01*
X135841541Y-285791042D02*
X135965350Y-285852947D01*
X135965350Y-285852947D02*
X136027255Y-285914852D01*
X136027255Y-285914852D02*
X136089160Y-286038661D01*
X136089160Y-286038661D02*
X136089160Y-286348185D01*
X136089160Y-286348185D02*
X136027255Y-286471995D01*
X136027255Y-286471995D02*
X135965350Y-286533900D01*
X135965350Y-286533900D02*
X135841541Y-286595804D01*
X135841541Y-286595804D02*
X135470112Y-286595804D01*
X135470112Y-286595804D02*
X135346303Y-286533900D01*
X135346303Y-286533900D02*
X135284398Y-286471995D01*
D10*
D11*
X185965350Y-285729138D02*
X185965350Y-286595804D01*
X185655826Y-285233900D02*
X185346303Y-286162471D01*
X185346303Y-286162471D02*
X186151064Y-286162471D01*
D10*
D11*
X236027255Y-285295804D02*
X235408207Y-285295804D01*
X235408207Y-285295804D02*
X235346303Y-285914852D01*
X235346303Y-285914852D02*
X235408207Y-285852947D01*
X235408207Y-285852947D02*
X235532017Y-285791042D01*
X235532017Y-285791042D02*
X235841541Y-285791042D01*
X235841541Y-285791042D02*
X235965350Y-285852947D01*
X235965350Y-285852947D02*
X236027255Y-285914852D01*
X236027255Y-285914852D02*
X236089160Y-286038661D01*
X236089160Y-286038661D02*
X236089160Y-286348185D01*
X236089160Y-286348185D02*
X236027255Y-286471995D01*
X236027255Y-286471995D02*
X235965350Y-286533900D01*
X235965350Y-286533900D02*
X235841541Y-286595804D01*
X235841541Y-286595804D02*
X235532017Y-286595804D01*
X235532017Y-286595804D02*
X235408207Y-286533900D01*
X235408207Y-286533900D02*
X235346303Y-286471995D01*
D10*
D11*
X285965350Y-285295804D02*
X285717731Y-285295804D01*
X285717731Y-285295804D02*
X285593922Y-285357709D01*
X285593922Y-285357709D02*
X285532017Y-285419614D01*
X285532017Y-285419614D02*
X285408207Y-285605328D01*
X285408207Y-285605328D02*
X285346303Y-285852947D01*
X285346303Y-285852947D02*
X285346303Y-286348185D01*
X285346303Y-286348185D02*
X285408207Y-286471995D01*
X285408207Y-286471995D02*
X285470112Y-286533900D01*
X285470112Y-286533900D02*
X285593922Y-286595804D01*
X285593922Y-286595804D02*
X285841541Y-286595804D01*
X285841541Y-286595804D02*
X285965350Y-286533900D01*
X285965350Y-286533900D02*
X286027255Y-286471995D01*
X286027255Y-286471995D02*
X286089160Y-286348185D01*
X286089160Y-286348185D02*
X286089160Y-286038661D01*
X286089160Y-286038661D02*
X286027255Y-285914852D01*
X286027255Y-285914852D02*
X285965350Y-285852947D01*
X285965350Y-285852947D02*
X285841541Y-285791042D01*
X285841541Y-285791042D02*
X285593922Y-285791042D01*
X285593922Y-285791042D02*
X285470112Y-285852947D01*
X285470112Y-285852947D02*
X285408207Y-285914852D01*
X285408207Y-285914852D02*
X285346303Y-286038661D01*
D10*
D11*
X335284398Y-285295804D02*
X336151064Y-285295804D01*
X336151064Y-285295804D02*
X335593922Y-286595804D01*
D10*
D11*
X385593922Y-285852947D02*
X385470112Y-285791042D01*
X385470112Y-285791042D02*
X385408207Y-285729138D01*
X385408207Y-285729138D02*
X385346303Y-285605328D01*
X385346303Y-285605328D02*
X385346303Y-285543423D01*
X385346303Y-285543423D02*
X385408207Y-285419614D01*
X385408207Y-285419614D02*
X385470112Y-285357709D01*
X385470112Y-285357709D02*
X385593922Y-285295804D01*
X385593922Y-285295804D02*
X385841541Y-285295804D01*
X385841541Y-285295804D02*
X385965350Y-285357709D01*
X385965350Y-285357709D02*
X386027255Y-285419614D01*
X386027255Y-285419614D02*
X386089160Y-285543423D01*
X386089160Y-285543423D02*
X386089160Y-285605328D01*
X386089160Y-285605328D02*
X386027255Y-285729138D01*
X386027255Y-285729138D02*
X385965350Y-285791042D01*
X385965350Y-285791042D02*
X385841541Y-285852947D01*
X385841541Y-285852947D02*
X385593922Y-285852947D01*
X385593922Y-285852947D02*
X385470112Y-285914852D01*
X385470112Y-285914852D02*
X385408207Y-285976757D01*
X385408207Y-285976757D02*
X385346303Y-286100566D01*
X385346303Y-286100566D02*
X385346303Y-286348185D01*
X385346303Y-286348185D02*
X385408207Y-286471995D01*
X385408207Y-286471995D02*
X385470112Y-286533900D01*
X385470112Y-286533900D02*
X385593922Y-286595804D01*
X385593922Y-286595804D02*
X385841541Y-286595804D01*
X385841541Y-286595804D02*
X385965350Y-286533900D01*
X385965350Y-286533900D02*
X386027255Y-286471995D01*
X386027255Y-286471995D02*
X386089160Y-286348185D01*
X386089160Y-286348185D02*
X386089160Y-286100566D01*
X386089160Y-286100566D02*
X386027255Y-285976757D01*
X386027255Y-285976757D02*
X385965350Y-285914852D01*
X385965350Y-285914852D02*
X385841541Y-285852947D01*
D10*
D11*
X10000000Y-60000000D02*
X12000000Y-60000000D01*
D10*
D11*
X10000000Y-110000000D02*
X12000000Y-110000000D01*
D10*
D11*
X10000000Y-160000000D02*
X12000000Y-160000000D01*
D10*
D11*
X10000000Y-210000000D02*
X12000000Y-210000000D01*
D10*
D11*
X10000000Y-260000000D02*
X12000000Y-260000000D01*
D10*
D11*
X10690476Y-35222176D02*
X11309523Y-35222176D01*
X10566666Y-35593604D02*
X10999999Y-34293604D01*
X10999999Y-34293604D02*
X11433333Y-35593604D01*
D10*
D11*
X11092857Y-84912652D02*
X11278571Y-84974557D01*
X11278571Y-84974557D02*
X11340476Y-85036461D01*
X11340476Y-85036461D02*
X11402380Y-85160271D01*
X11402380Y-85160271D02*
X11402380Y-85345985D01*
X11402380Y-85345985D02*
X11340476Y-85469795D01*
X11340476Y-85469795D02*
X11278571Y-85531700D01*
X11278571Y-85531700D02*
X11154761Y-85593604D01*
X11154761Y-85593604D02*
X10659523Y-85593604D01*
X10659523Y-85593604D02*
X10659523Y-84293604D01*
X10659523Y-84293604D02*
X11092857Y-84293604D01*
X11092857Y-84293604D02*
X11216666Y-84355509D01*
X11216666Y-84355509D02*
X11278571Y-84417414D01*
X11278571Y-84417414D02*
X11340476Y-84541223D01*
X11340476Y-84541223D02*
X11340476Y-84665033D01*
X11340476Y-84665033D02*
X11278571Y-84788842D01*
X11278571Y-84788842D02*
X11216666Y-84850747D01*
X11216666Y-84850747D02*
X11092857Y-84912652D01*
X11092857Y-84912652D02*
X10659523Y-84912652D01*
D10*
D11*
X11402380Y-135469795D02*
X11340476Y-135531700D01*
X11340476Y-135531700D02*
X11154761Y-135593604D01*
X11154761Y-135593604D02*
X11030952Y-135593604D01*
X11030952Y-135593604D02*
X10845238Y-135531700D01*
X10845238Y-135531700D02*
X10721428Y-135407890D01*
X10721428Y-135407890D02*
X10659523Y-135284080D01*
X10659523Y-135284080D02*
X10597619Y-135036461D01*
X10597619Y-135036461D02*
X10597619Y-134850747D01*
X10597619Y-134850747D02*
X10659523Y-134603128D01*
X10659523Y-134603128D02*
X10721428Y-134479319D01*
X10721428Y-134479319D02*
X10845238Y-134355509D01*
X10845238Y-134355509D02*
X11030952Y-134293604D01*
X11030952Y-134293604D02*
X11154761Y-134293604D01*
X11154761Y-134293604D02*
X11340476Y-134355509D01*
X11340476Y-134355509D02*
X11402380Y-134417414D01*
D10*
D11*
X10659523Y-185593604D02*
X10659523Y-184293604D01*
X10659523Y-184293604D02*
X10969047Y-184293604D01*
X10969047Y-184293604D02*
X11154761Y-184355509D01*
X11154761Y-184355509D02*
X11278571Y-184479319D01*
X11278571Y-184479319D02*
X11340476Y-184603128D01*
X11340476Y-184603128D02*
X11402380Y-184850747D01*
X11402380Y-184850747D02*
X11402380Y-185036461D01*
X11402380Y-185036461D02*
X11340476Y-185284080D01*
X11340476Y-185284080D02*
X11278571Y-185407890D01*
X11278571Y-185407890D02*
X11154761Y-185531700D01*
X11154761Y-185531700D02*
X10969047Y-185593604D01*
X10969047Y-185593604D02*
X10659523Y-185593604D01*
D10*
D11*
X10721428Y-234912652D02*
X11154762Y-234912652D01*
X11340476Y-235593604D02*
X10721428Y-235593604D01*
X10721428Y-235593604D02*
X10721428Y-234293604D01*
X10721428Y-234293604D02*
X11340476Y-234293604D01*
D10*
D11*
X11185714Y-284912652D02*
X10752380Y-284912652D01*
X10752380Y-285593604D02*
X10752380Y-284293604D01*
X10752380Y-284293604D02*
X11371428Y-284293604D01*
D10*
D11*
X409989000Y-60000000D02*
X407989000Y-60000000D01*
D10*
D11*
X409989000Y-110000000D02*
X407989000Y-110000000D01*
D10*
D11*
X409989000Y-160000000D02*
X407989000Y-160000000D01*
D10*
D11*
X409989000Y-210000000D02*
X407989000Y-210000000D01*
D10*
D11*
X409989000Y-260000000D02*
X407989000Y-260000000D01*
D10*
D11*
X408679476Y-35222176D02*
X409298523Y-35222176D01*
X408555666Y-35593604D02*
X408988999Y-34293604D01*
X408988999Y-34293604D02*
X409422333Y-35593604D01*
D10*
D11*
X409081857Y-84912652D02*
X409267571Y-84974557D01*
X409267571Y-84974557D02*
X409329476Y-85036461D01*
X409329476Y-85036461D02*
X409391380Y-85160271D01*
X409391380Y-85160271D02*
X409391380Y-85345985D01*
X409391380Y-85345985D02*
X409329476Y-85469795D01*
X409329476Y-85469795D02*
X409267571Y-85531700D01*
X409267571Y-85531700D02*
X409143761Y-85593604D01*
X409143761Y-85593604D02*
X408648523Y-85593604D01*
X408648523Y-85593604D02*
X408648523Y-84293604D01*
X408648523Y-84293604D02*
X409081857Y-84293604D01*
X409081857Y-84293604D02*
X409205666Y-84355509D01*
X409205666Y-84355509D02*
X409267571Y-84417414D01*
X409267571Y-84417414D02*
X409329476Y-84541223D01*
X409329476Y-84541223D02*
X409329476Y-84665033D01*
X409329476Y-84665033D02*
X409267571Y-84788842D01*
X409267571Y-84788842D02*
X409205666Y-84850747D01*
X409205666Y-84850747D02*
X409081857Y-84912652D01*
X409081857Y-84912652D02*
X408648523Y-84912652D01*
D10*
D11*
X409391380Y-135469795D02*
X409329476Y-135531700D01*
X409329476Y-135531700D02*
X409143761Y-135593604D01*
X409143761Y-135593604D02*
X409019952Y-135593604D01*
X409019952Y-135593604D02*
X408834238Y-135531700D01*
X408834238Y-135531700D02*
X408710428Y-135407890D01*
X408710428Y-135407890D02*
X408648523Y-135284080D01*
X408648523Y-135284080D02*
X408586619Y-135036461D01*
X408586619Y-135036461D02*
X408586619Y-134850747D01*
X408586619Y-134850747D02*
X408648523Y-134603128D01*
X408648523Y-134603128D02*
X408710428Y-134479319D01*
X408710428Y-134479319D02*
X408834238Y-134355509D01*
X408834238Y-134355509D02*
X409019952Y-134293604D01*
X409019952Y-134293604D02*
X409143761Y-134293604D01*
X409143761Y-134293604D02*
X409329476Y-134355509D01*
X409329476Y-134355509D02*
X409391380Y-134417414D01*
D10*
D11*
X408648523Y-185593604D02*
X408648523Y-184293604D01*
X408648523Y-184293604D02*
X408958047Y-184293604D01*
X408958047Y-184293604D02*
X409143761Y-184355509D01*
X409143761Y-184355509D02*
X409267571Y-184479319D01*
X409267571Y-184479319D02*
X409329476Y-184603128D01*
X409329476Y-184603128D02*
X409391380Y-184850747D01*
X409391380Y-184850747D02*
X409391380Y-185036461D01*
X409391380Y-185036461D02*
X409329476Y-185284080D01*
X409329476Y-185284080D02*
X409267571Y-185407890D01*
X409267571Y-185407890D02*
X409143761Y-185531700D01*
X409143761Y-185531700D02*
X408958047Y-185593604D01*
X408958047Y-185593604D02*
X408648523Y-185593604D01*
D10*
D11*
X408710428Y-234912652D02*
X409143762Y-234912652D01*
X409329476Y-235593604D02*
X408710428Y-235593604D01*
X408710428Y-235593604D02*
X408710428Y-234293604D01*
X408710428Y-234293604D02*
X409329476Y-234293604D01*
D10*
D11*
X409174714Y-284912652D02*
X408741380Y-284912652D01*
X408741380Y-285593604D02*
X408741380Y-284293604D01*
X408741380Y-284293604D02*
X409360428Y-284293604D01*
D10*
D11*
X323444826Y-280788328D02*
X323444826Y-279288328D01*
X323444826Y-279288328D02*
X323801969Y-279288328D01*
X323801969Y-279288328D02*
X324016255Y-279359757D01*
X324016255Y-279359757D02*
X324159112Y-279502614D01*
X324159112Y-279502614D02*
X324230541Y-279645471D01*
X324230541Y-279645471D02*
X324301969Y-279931185D01*
X324301969Y-279931185D02*
X324301969Y-280145471D01*
X324301969Y-280145471D02*
X324230541Y-280431185D01*
X324230541Y-280431185D02*
X324159112Y-280574042D01*
X324159112Y-280574042D02*
X324016255Y-280716900D01*
X324016255Y-280716900D02*
X323801969Y-280788328D01*
X323801969Y-280788328D02*
X323444826Y-280788328D01*
X325587684Y-280788328D02*
X325587684Y-280002614D01*
X325587684Y-280002614D02*
X325516255Y-279859757D01*
X325516255Y-279859757D02*
X325373398Y-279788328D01*
X325373398Y-279788328D02*
X325087684Y-279788328D01*
X325087684Y-279788328D02*
X324944826Y-279859757D01*
X325587684Y-280716900D02*
X325444826Y-280788328D01*
X325444826Y-280788328D02*
X325087684Y-280788328D01*
X325087684Y-280788328D02*
X324944826Y-280716900D01*
X324944826Y-280716900D02*
X324873398Y-280574042D01*
X324873398Y-280574042D02*
X324873398Y-280431185D01*
X324873398Y-280431185D02*
X324944826Y-280288328D01*
X324944826Y-280288328D02*
X325087684Y-280216900D01*
X325087684Y-280216900D02*
X325444826Y-280216900D01*
X325444826Y-280216900D02*
X325587684Y-280145471D01*
X326087684Y-279788328D02*
X326659112Y-279788328D01*
X326301969Y-279288328D02*
X326301969Y-280574042D01*
X326301969Y-280574042D02*
X326373398Y-280716900D01*
X326373398Y-280716900D02*
X326516255Y-280788328D01*
X326516255Y-280788328D02*
X326659112Y-280788328D01*
X327730541Y-280716900D02*
X327587684Y-280788328D01*
X327587684Y-280788328D02*
X327301970Y-280788328D01*
X327301970Y-280788328D02*
X327159112Y-280716900D01*
X327159112Y-280716900D02*
X327087684Y-280574042D01*
X327087684Y-280574042D02*
X327087684Y-280002614D01*
X327087684Y-280002614D02*
X327159112Y-279859757D01*
X327159112Y-279859757D02*
X327301970Y-279788328D01*
X327301970Y-279788328D02*
X327587684Y-279788328D01*
X327587684Y-279788328D02*
X327730541Y-279859757D01*
X327730541Y-279859757D02*
X327801970Y-280002614D01*
X327801970Y-280002614D02*
X327801970Y-280145471D01*
X327801970Y-280145471D02*
X327087684Y-280288328D01*
X328444826Y-280645471D02*
X328516255Y-280716900D01*
X328516255Y-280716900D02*
X328444826Y-280788328D01*
X328444826Y-280788328D02*
X328373398Y-280716900D01*
X328373398Y-280716900D02*
X328444826Y-280645471D01*
X328444826Y-280645471D02*
X328444826Y-280788328D01*
X328444826Y-279859757D02*
X328516255Y-279931185D01*
X328516255Y-279931185D02*
X328444826Y-280002614D01*
X328444826Y-280002614D02*
X328373398Y-279931185D01*
X328373398Y-279931185D02*
X328444826Y-279859757D01*
X328444826Y-279859757D02*
X328444826Y-280002614D01*
X330230541Y-279431185D02*
X330301969Y-279359757D01*
X330301969Y-279359757D02*
X330444827Y-279288328D01*
X330444827Y-279288328D02*
X330801969Y-279288328D01*
X330801969Y-279288328D02*
X330944827Y-279359757D01*
X330944827Y-279359757D02*
X331016255Y-279431185D01*
X331016255Y-279431185D02*
X331087684Y-279574042D01*
X331087684Y-279574042D02*
X331087684Y-279716900D01*
X331087684Y-279716900D02*
X331016255Y-279931185D01*
X331016255Y-279931185D02*
X330159112Y-280788328D01*
X330159112Y-280788328D02*
X331087684Y-280788328D01*
X332016255Y-279288328D02*
X332159112Y-279288328D01*
X332159112Y-279288328D02*
X332301969Y-279359757D01*
X332301969Y-279359757D02*
X332373398Y-279431185D01*
X332373398Y-279431185D02*
X332444826Y-279574042D01*
X332444826Y-279574042D02*
X332516255Y-279859757D01*
X332516255Y-279859757D02*
X332516255Y-280216900D01*
X332516255Y-280216900D02*
X332444826Y-280502614D01*
X332444826Y-280502614D02*
X332373398Y-280645471D01*
X332373398Y-280645471D02*
X332301969Y-280716900D01*
X332301969Y-280716900D02*
X332159112Y-280788328D01*
X332159112Y-280788328D02*
X332016255Y-280788328D01*
X332016255Y-280788328D02*
X331873398Y-280716900D01*
X331873398Y-280716900D02*
X331801969Y-280645471D01*
X331801969Y-280645471D02*
X331730540Y-280502614D01*
X331730540Y-280502614D02*
X331659112Y-280216900D01*
X331659112Y-280216900D02*
X331659112Y-279859757D01*
X331659112Y-279859757D02*
X331730540Y-279574042D01*
X331730540Y-279574042D02*
X331801969Y-279431185D01*
X331801969Y-279431185D02*
X331873398Y-279359757D01*
X331873398Y-279359757D02*
X332016255Y-279288328D01*
X333087683Y-279431185D02*
X333159111Y-279359757D01*
X333159111Y-279359757D02*
X333301969Y-279288328D01*
X333301969Y-279288328D02*
X333659111Y-279288328D01*
X333659111Y-279288328D02*
X333801969Y-279359757D01*
X333801969Y-279359757D02*
X333873397Y-279431185D01*
X333873397Y-279431185D02*
X333944826Y-279574042D01*
X333944826Y-279574042D02*
X333944826Y-279716900D01*
X333944826Y-279716900D02*
X333873397Y-279931185D01*
X333873397Y-279931185D02*
X333016254Y-280788328D01*
X333016254Y-280788328D02*
X333944826Y-280788328D01*
X335301968Y-279288328D02*
X334587682Y-279288328D01*
X334587682Y-279288328D02*
X334516254Y-280002614D01*
X334516254Y-280002614D02*
X334587682Y-279931185D01*
X334587682Y-279931185D02*
X334730540Y-279859757D01*
X334730540Y-279859757D02*
X335087682Y-279859757D01*
X335087682Y-279859757D02*
X335230540Y-279931185D01*
X335230540Y-279931185D02*
X335301968Y-280002614D01*
X335301968Y-280002614D02*
X335373397Y-280145471D01*
X335373397Y-280145471D02*
X335373397Y-280502614D01*
X335373397Y-280502614D02*
X335301968Y-280645471D01*
X335301968Y-280645471D02*
X335230540Y-280716900D01*
X335230540Y-280716900D02*
X335087682Y-280788328D01*
X335087682Y-280788328D02*
X334730540Y-280788328D01*
X334730540Y-280788328D02*
X334587682Y-280716900D01*
X334587682Y-280716900D02*
X334516254Y-280645471D01*
X336016253Y-280216900D02*
X337159111Y-280216900D01*
X338159111Y-279288328D02*
X338301968Y-279288328D01*
X338301968Y-279288328D02*
X338444825Y-279359757D01*
X338444825Y-279359757D02*
X338516254Y-279431185D01*
X338516254Y-279431185D02*
X338587682Y-279574042D01*
X338587682Y-279574042D02*
X338659111Y-279859757D01*
X338659111Y-279859757D02*
X338659111Y-280216900D01*
X338659111Y-280216900D02*
X338587682Y-280502614D01*
X338587682Y-280502614D02*
X338516254Y-280645471D01*
X338516254Y-280645471D02*
X338444825Y-280716900D01*
X338444825Y-280716900D02*
X338301968Y-280788328D01*
X338301968Y-280788328D02*
X338159111Y-280788328D01*
X338159111Y-280788328D02*
X338016254Y-280716900D01*
X338016254Y-280716900D02*
X337944825Y-280645471D01*
X337944825Y-280645471D02*
X337873396Y-280502614D01*
X337873396Y-280502614D02*
X337801968Y-280216900D01*
X337801968Y-280216900D02*
X337801968Y-279859757D01*
X337801968Y-279859757D02*
X337873396Y-279574042D01*
X337873396Y-279574042D02*
X337944825Y-279431185D01*
X337944825Y-279431185D02*
X338016254Y-279359757D01*
X338016254Y-279359757D02*
X338159111Y-279288328D01*
X340016253Y-279288328D02*
X339301967Y-279288328D01*
X339301967Y-279288328D02*
X339230539Y-280002614D01*
X339230539Y-280002614D02*
X339301967Y-279931185D01*
X339301967Y-279931185D02*
X339444825Y-279859757D01*
X339444825Y-279859757D02*
X339801967Y-279859757D01*
X339801967Y-279859757D02*
X339944825Y-279931185D01*
X339944825Y-279931185D02*
X340016253Y-280002614D01*
X340016253Y-280002614D02*
X340087682Y-280145471D01*
X340087682Y-280145471D02*
X340087682Y-280502614D01*
X340087682Y-280502614D02*
X340016253Y-280645471D01*
X340016253Y-280645471D02*
X339944825Y-280716900D01*
X339944825Y-280716900D02*
X339801967Y-280788328D01*
X339801967Y-280788328D02*
X339444825Y-280788328D01*
X339444825Y-280788328D02*
X339301967Y-280716900D01*
X339301967Y-280716900D02*
X339230539Y-280645471D01*
X340730538Y-280216900D02*
X341873396Y-280216900D01*
X342516253Y-279431185D02*
X342587681Y-279359757D01*
X342587681Y-279359757D02*
X342730539Y-279288328D01*
X342730539Y-279288328D02*
X343087681Y-279288328D01*
X343087681Y-279288328D02*
X343230539Y-279359757D01*
X343230539Y-279359757D02*
X343301967Y-279431185D01*
X343301967Y-279431185D02*
X343373396Y-279574042D01*
X343373396Y-279574042D02*
X343373396Y-279716900D01*
X343373396Y-279716900D02*
X343301967Y-279931185D01*
X343301967Y-279931185D02*
X342444824Y-280788328D01*
X342444824Y-280788328D02*
X343373396Y-280788328D01*
X344659110Y-279788328D02*
X344659110Y-280788328D01*
X344301967Y-279216900D02*
X343944824Y-280288328D01*
X343944824Y-280288328D02*
X344873395Y-280288328D01*
D10*
D11*
X299989000Y-281502200D02*
X407989000Y-281502200D01*
D10*
D11*
X301444826Y-283588328D02*
X301444826Y-282088328D01*
X302301969Y-283588328D02*
X301659112Y-282731185D01*
X302301969Y-282088328D02*
X301444826Y-282945471D01*
X302944826Y-283588328D02*
X302944826Y-282588328D01*
X302944826Y-282088328D02*
X302873398Y-282159757D01*
X302873398Y-282159757D02*
X302944826Y-282231185D01*
X302944826Y-282231185D02*
X303016255Y-282159757D01*
X303016255Y-282159757D02*
X302944826Y-282088328D01*
X302944826Y-282088328D02*
X302944826Y-282231185D01*
X304516255Y-283445471D02*
X304444827Y-283516900D01*
X304444827Y-283516900D02*
X304230541Y-283588328D01*
X304230541Y-283588328D02*
X304087684Y-283588328D01*
X304087684Y-283588328D02*
X303873398Y-283516900D01*
X303873398Y-283516900D02*
X303730541Y-283374042D01*
X303730541Y-283374042D02*
X303659112Y-283231185D01*
X303659112Y-283231185D02*
X303587684Y-282945471D01*
X303587684Y-282945471D02*
X303587684Y-282731185D01*
X303587684Y-282731185D02*
X303659112Y-282445471D01*
X303659112Y-282445471D02*
X303730541Y-282302614D01*
X303730541Y-282302614D02*
X303873398Y-282159757D01*
X303873398Y-282159757D02*
X304087684Y-282088328D01*
X304087684Y-282088328D02*
X304230541Y-282088328D01*
X304230541Y-282088328D02*
X304444827Y-282159757D01*
X304444827Y-282159757D02*
X304516255Y-282231185D01*
X305801970Y-283588328D02*
X305801970Y-282802614D01*
X305801970Y-282802614D02*
X305730541Y-282659757D01*
X305730541Y-282659757D02*
X305587684Y-282588328D01*
X305587684Y-282588328D02*
X305301970Y-282588328D01*
X305301970Y-282588328D02*
X305159112Y-282659757D01*
X305801970Y-283516900D02*
X305659112Y-283588328D01*
X305659112Y-283588328D02*
X305301970Y-283588328D01*
X305301970Y-283588328D02*
X305159112Y-283516900D01*
X305159112Y-283516900D02*
X305087684Y-283374042D01*
X305087684Y-283374042D02*
X305087684Y-283231185D01*
X305087684Y-283231185D02*
X305159112Y-283088328D01*
X305159112Y-283088328D02*
X305301970Y-283016900D01*
X305301970Y-283016900D02*
X305659112Y-283016900D01*
X305659112Y-283016900D02*
X305801970Y-282945471D01*
X307159113Y-283588328D02*
X307159113Y-282088328D01*
X307159113Y-283516900D02*
X307016255Y-283588328D01*
X307016255Y-283588328D02*
X306730541Y-283588328D01*
X306730541Y-283588328D02*
X306587684Y-283516900D01*
X306587684Y-283516900D02*
X306516255Y-283445471D01*
X306516255Y-283445471D02*
X306444827Y-283302614D01*
X306444827Y-283302614D02*
X306444827Y-282874042D01*
X306444827Y-282874042D02*
X306516255Y-282731185D01*
X306516255Y-282731185D02*
X306587684Y-282659757D01*
X306587684Y-282659757D02*
X306730541Y-282588328D01*
X306730541Y-282588328D02*
X307016255Y-282588328D01*
X307016255Y-282588328D02*
X307159113Y-282659757D01*
X309016255Y-282802614D02*
X309516255Y-282802614D01*
X309730541Y-283588328D02*
X309016255Y-283588328D01*
X309016255Y-283588328D02*
X309016255Y-282088328D01*
X309016255Y-282088328D02*
X309730541Y-282088328D01*
X310373398Y-283445471D02*
X310444827Y-283516900D01*
X310444827Y-283516900D02*
X310373398Y-283588328D01*
X310373398Y-283588328D02*
X310301970Y-283516900D01*
X310301970Y-283516900D02*
X310373398Y-283445471D01*
X310373398Y-283445471D02*
X310373398Y-283588328D01*
X311087684Y-283588328D02*
X311087684Y-282088328D01*
X311087684Y-282088328D02*
X311444827Y-282088328D01*
X311444827Y-282088328D02*
X311659113Y-282159757D01*
X311659113Y-282159757D02*
X311801970Y-282302614D01*
X311801970Y-282302614D02*
X311873399Y-282445471D01*
X311873399Y-282445471D02*
X311944827Y-282731185D01*
X311944827Y-282731185D02*
X311944827Y-282945471D01*
X311944827Y-282945471D02*
X311873399Y-283231185D01*
X311873399Y-283231185D02*
X311801970Y-283374042D01*
X311801970Y-283374042D02*
X311659113Y-283516900D01*
X311659113Y-283516900D02*
X311444827Y-283588328D01*
X311444827Y-283588328D02*
X311087684Y-283588328D01*
X312587684Y-283445471D02*
X312659113Y-283516900D01*
X312659113Y-283516900D02*
X312587684Y-283588328D01*
X312587684Y-283588328D02*
X312516256Y-283516900D01*
X312516256Y-283516900D02*
X312587684Y-283445471D01*
X312587684Y-283445471D02*
X312587684Y-283588328D01*
X313230542Y-283159757D02*
X313944828Y-283159757D01*
X313087685Y-283588328D02*
X313587685Y-282088328D01*
X313587685Y-282088328D02*
X314087685Y-283588328D01*
X314587684Y-283445471D02*
X314659113Y-283516900D01*
X314659113Y-283516900D02*
X314587684Y-283588328D01*
X314587684Y-283588328D02*
X314516256Y-283516900D01*
X314516256Y-283516900D02*
X314587684Y-283445471D01*
X314587684Y-283445471D02*
X314587684Y-283588328D01*
X316516256Y-283588328D02*
X316801970Y-283588328D01*
X316801970Y-283588328D02*
X316944827Y-283516900D01*
X316944827Y-283516900D02*
X317016256Y-283445471D01*
X317016256Y-283445471D02*
X317159113Y-283231185D01*
X317159113Y-283231185D02*
X317230542Y-282945471D01*
X317230542Y-282945471D02*
X317230542Y-282374042D01*
X317230542Y-282374042D02*
X317159113Y-282231185D01*
X317159113Y-282231185D02*
X317087685Y-282159757D01*
X317087685Y-282159757D02*
X316944827Y-282088328D01*
X316944827Y-282088328D02*
X316659113Y-282088328D01*
X316659113Y-282088328D02*
X316516256Y-282159757D01*
X316516256Y-282159757D02*
X316444827Y-282231185D01*
X316444827Y-282231185D02*
X316373399Y-282374042D01*
X316373399Y-282374042D02*
X316373399Y-282731185D01*
X316373399Y-282731185D02*
X316444827Y-282874042D01*
X316444827Y-282874042D02*
X316516256Y-282945471D01*
X316516256Y-282945471D02*
X316659113Y-283016900D01*
X316659113Y-283016900D02*
X316944827Y-283016900D01*
X316944827Y-283016900D02*
X317087685Y-282945471D01*
X317087685Y-282945471D02*
X317159113Y-282874042D01*
X317159113Y-282874042D02*
X317230542Y-282731185D01*
X317873398Y-283445471D02*
X317944827Y-283516900D01*
X317944827Y-283516900D02*
X317873398Y-283588328D01*
X317873398Y-283588328D02*
X317801970Y-283516900D01*
X317801970Y-283516900D02*
X317873398Y-283445471D01*
X317873398Y-283445471D02*
X317873398Y-283588328D01*
X318873399Y-282088328D02*
X319016256Y-282088328D01*
X319016256Y-282088328D02*
X319159113Y-282159757D01*
X319159113Y-282159757D02*
X319230542Y-282231185D01*
X319230542Y-282231185D02*
X319301970Y-282374042D01*
X319301970Y-282374042D02*
X319373399Y-282659757D01*
X319373399Y-282659757D02*
X319373399Y-283016900D01*
X319373399Y-283016900D02*
X319301970Y-283302614D01*
X319301970Y-283302614D02*
X319230542Y-283445471D01*
X319230542Y-283445471D02*
X319159113Y-283516900D01*
X319159113Y-283516900D02*
X319016256Y-283588328D01*
X319016256Y-283588328D02*
X318873399Y-283588328D01*
X318873399Y-283588328D02*
X318730542Y-283516900D01*
X318730542Y-283516900D02*
X318659113Y-283445471D01*
X318659113Y-283445471D02*
X318587684Y-283302614D01*
X318587684Y-283302614D02*
X318516256Y-283016900D01*
X318516256Y-283016900D02*
X318516256Y-282659757D01*
X318516256Y-282659757D02*
X318587684Y-282374042D01*
X318587684Y-282374042D02*
X318659113Y-282231185D01*
X318659113Y-282231185D02*
X318730542Y-282159757D01*
X318730542Y-282159757D02*
X318873399Y-282088328D01*
X320016255Y-283445471D02*
X320087684Y-283516900D01*
X320087684Y-283516900D02*
X320016255Y-283588328D01*
X320016255Y-283588328D02*
X319944827Y-283516900D01*
X319944827Y-283516900D02*
X320016255Y-283445471D01*
X320016255Y-283445471D02*
X320016255Y-283588328D01*
X321516256Y-283588328D02*
X320659113Y-283588328D01*
X321087684Y-283588328D02*
X321087684Y-282088328D01*
X321087684Y-282088328D02*
X320944827Y-282302614D01*
X320944827Y-282302614D02*
X320801970Y-282445471D01*
X320801970Y-282445471D02*
X320659113Y-282516900D01*
D10*
D11*
X299989000Y-278502200D02*
X407989000Y-278502200D01*
D10*
D12*
X387400653Y-280780528D02*
X386900653Y-280066242D01*
X386543510Y-280780528D02*
X386543510Y-279280528D01*
X386543510Y-279280528D02*
X387114939Y-279280528D01*
X387114939Y-279280528D02*
X387257796Y-279351957D01*
X387257796Y-279351957D02*
X387329225Y-279423385D01*
X387329225Y-279423385D02*
X387400653Y-279566242D01*
X387400653Y-279566242D02*
X387400653Y-279780528D01*
X387400653Y-279780528D02*
X387329225Y-279923385D01*
X387329225Y-279923385D02*
X387257796Y-279994814D01*
X387257796Y-279994814D02*
X387114939Y-280066242D01*
X387114939Y-280066242D02*
X386543510Y-280066242D01*
X388614939Y-280709100D02*
X388472082Y-280780528D01*
X388472082Y-280780528D02*
X388186368Y-280780528D01*
X388186368Y-280780528D02*
X388043510Y-280709100D01*
X388043510Y-280709100D02*
X387972082Y-280566242D01*
X387972082Y-280566242D02*
X387972082Y-279994814D01*
X387972082Y-279994814D02*
X388043510Y-279851957D01*
X388043510Y-279851957D02*
X388186368Y-279780528D01*
X388186368Y-279780528D02*
X388472082Y-279780528D01*
X388472082Y-279780528D02*
X388614939Y-279851957D01*
X388614939Y-279851957D02*
X388686368Y-279994814D01*
X388686368Y-279994814D02*
X388686368Y-280137671D01*
X388686368Y-280137671D02*
X387972082Y-280280528D01*
X389186367Y-279780528D02*
X389543510Y-280780528D01*
X389543510Y-280780528D02*
X389900653Y-279780528D01*
X390472081Y-280637671D02*
X390543510Y-280709100D01*
X390543510Y-280709100D02*
X390472081Y-280780528D01*
X390472081Y-280780528D02*
X390400653Y-280709100D01*
X390400653Y-280709100D02*
X390472081Y-280637671D01*
X390472081Y-280637671D02*
X390472081Y-280780528D01*
X390472081Y-279851957D02*
X390543510Y-279923385D01*
X390543510Y-279923385D02*
X390472081Y-279994814D01*
X390472081Y-279994814D02*
X390400653Y-279923385D01*
X390400653Y-279923385D02*
X390472081Y-279851957D01*
X390472081Y-279851957D02*
X390472081Y-279994814D01*
X392614939Y-279280528D02*
X392757796Y-279280528D01*
X392757796Y-279280528D02*
X392900653Y-279351957D01*
X392900653Y-279351957D02*
X392972082Y-279423385D01*
X392972082Y-279423385D02*
X393043510Y-279566242D01*
X393043510Y-279566242D02*
X393114939Y-279851957D01*
X393114939Y-279851957D02*
X393114939Y-280209100D01*
X393114939Y-280209100D02*
X393043510Y-280494814D01*
X393043510Y-280494814D02*
X392972082Y-280637671D01*
X392972082Y-280637671D02*
X392900653Y-280709100D01*
X392900653Y-280709100D02*
X392757796Y-280780528D01*
X392757796Y-280780528D02*
X392614939Y-280780528D01*
X392614939Y-280780528D02*
X392472082Y-280709100D01*
X392472082Y-280709100D02*
X392400653Y-280637671D01*
X392400653Y-280637671D02*
X392329224Y-280494814D01*
X392329224Y-280494814D02*
X392257796Y-280209100D01*
X392257796Y-280209100D02*
X392257796Y-279851957D01*
X392257796Y-279851957D02*
X392329224Y-279566242D01*
X392329224Y-279566242D02*
X392400653Y-279423385D01*
X392400653Y-279423385D02*
X392472082Y-279351957D01*
X392472082Y-279351957D02*
X392614939Y-279280528D01*
X394400653Y-279280528D02*
X394114938Y-279280528D01*
X394114938Y-279280528D02*
X393972081Y-279351957D01*
X393972081Y-279351957D02*
X393900653Y-279423385D01*
X393900653Y-279423385D02*
X393757795Y-279637671D01*
X393757795Y-279637671D02*
X393686367Y-279923385D01*
X393686367Y-279923385D02*
X393686367Y-280494814D01*
X393686367Y-280494814D02*
X393757795Y-280637671D01*
X393757795Y-280637671D02*
X393829224Y-280709100D01*
X393829224Y-280709100D02*
X393972081Y-280780528D01*
X393972081Y-280780528D02*
X394257795Y-280780528D01*
X394257795Y-280780528D02*
X394400653Y-280709100D01*
X394400653Y-280709100D02*
X394472081Y-280637671D01*
X394472081Y-280637671D02*
X394543510Y-280494814D01*
X394543510Y-280494814D02*
X394543510Y-280137671D01*
X394543510Y-280137671D02*
X394472081Y-279994814D01*
X394472081Y-279994814D02*
X394400653Y-279923385D01*
X394400653Y-279923385D02*
X394257795Y-279851957D01*
X394257795Y-279851957D02*
X393972081Y-279851957D01*
X393972081Y-279851957D02*
X393829224Y-279923385D01*
X393829224Y-279923385D02*
X393757795Y-279994814D01*
X393757795Y-279994814D02*
X393686367Y-280137671D01*
D10*
D11*
X301373398Y-280716900D02*
X301587684Y-280788328D01*
X301587684Y-280788328D02*
X301944826Y-280788328D01*
X301944826Y-280788328D02*
X302087684Y-280716900D01*
X302087684Y-280716900D02*
X302159112Y-280645471D01*
X302159112Y-280645471D02*
X302230541Y-280502614D01*
X302230541Y-280502614D02*
X302230541Y-280359757D01*
X302230541Y-280359757D02*
X302159112Y-280216900D01*
X302159112Y-280216900D02*
X302087684Y-280145471D01*
X302087684Y-280145471D02*
X301944826Y-280074042D01*
X301944826Y-280074042D02*
X301659112Y-280002614D01*
X301659112Y-280002614D02*
X301516255Y-279931185D01*
X301516255Y-279931185D02*
X301444826Y-279859757D01*
X301444826Y-279859757D02*
X301373398Y-279716900D01*
X301373398Y-279716900D02*
X301373398Y-279574042D01*
X301373398Y-279574042D02*
X301444826Y-279431185D01*
X301444826Y-279431185D02*
X301516255Y-279359757D01*
X301516255Y-279359757D02*
X301659112Y-279288328D01*
X301659112Y-279288328D02*
X302016255Y-279288328D01*
X302016255Y-279288328D02*
X302230541Y-279359757D01*
X302873397Y-280788328D02*
X302873397Y-279788328D01*
X302873397Y-279288328D02*
X302801969Y-279359757D01*
X302801969Y-279359757D02*
X302873397Y-279431185D01*
X302873397Y-279431185D02*
X302944826Y-279359757D01*
X302944826Y-279359757D02*
X302873397Y-279288328D01*
X302873397Y-279288328D02*
X302873397Y-279431185D01*
X303444826Y-279788328D02*
X304230541Y-279788328D01*
X304230541Y-279788328D02*
X303444826Y-280788328D01*
X303444826Y-280788328D02*
X304230541Y-280788328D01*
X305373398Y-280716900D02*
X305230541Y-280788328D01*
X305230541Y-280788328D02*
X304944827Y-280788328D01*
X304944827Y-280788328D02*
X304801969Y-280716900D01*
X304801969Y-280716900D02*
X304730541Y-280574042D01*
X304730541Y-280574042D02*
X304730541Y-280002614D01*
X304730541Y-280002614D02*
X304801969Y-279859757D01*
X304801969Y-279859757D02*
X304944827Y-279788328D01*
X304944827Y-279788328D02*
X305230541Y-279788328D01*
X305230541Y-279788328D02*
X305373398Y-279859757D01*
X305373398Y-279859757D02*
X305444827Y-280002614D01*
X305444827Y-280002614D02*
X305444827Y-280145471D01*
X305444827Y-280145471D02*
X304730541Y-280288328D01*
X306087683Y-280645471D02*
X306159112Y-280716900D01*
X306159112Y-280716900D02*
X306087683Y-280788328D01*
X306087683Y-280788328D02*
X306016255Y-280716900D01*
X306016255Y-280716900D02*
X306087683Y-280645471D01*
X306087683Y-280645471D02*
X306087683Y-280788328D01*
X306087683Y-279859757D02*
X306159112Y-279931185D01*
X306159112Y-279931185D02*
X306087683Y-280002614D01*
X306087683Y-280002614D02*
X306016255Y-279931185D01*
X306016255Y-279931185D02*
X306087683Y-279859757D01*
X306087683Y-279859757D02*
X306087683Y-280002614D01*
X307873398Y-280359757D02*
X308587684Y-280359757D01*
X307730541Y-280788328D02*
X308230541Y-279288328D01*
X308230541Y-279288328D02*
X308730541Y-280788328D01*
X309087683Y-279288328D02*
X310016255Y-279288328D01*
X310016255Y-279288328D02*
X309516255Y-279859757D01*
X309516255Y-279859757D02*
X309730540Y-279859757D01*
X309730540Y-279859757D02*
X309873398Y-279931185D01*
X309873398Y-279931185D02*
X309944826Y-280002614D01*
X309944826Y-280002614D02*
X310016255Y-280145471D01*
X310016255Y-280145471D02*
X310016255Y-280502614D01*
X310016255Y-280502614D02*
X309944826Y-280645471D01*
X309944826Y-280645471D02*
X309873398Y-280716900D01*
X309873398Y-280716900D02*
X309730540Y-280788328D01*
X309730540Y-280788328D02*
X309301969Y-280788328D01*
X309301969Y-280788328D02*
X309159112Y-280716900D01*
X309159112Y-280716900D02*
X309087683Y-280645471D01*
D10*
D11*
X386444826Y-283588328D02*
X386444826Y-282088328D01*
X387801970Y-283588328D02*
X387801970Y-282088328D01*
X387801970Y-283516900D02*
X387659112Y-283588328D01*
X387659112Y-283588328D02*
X387373398Y-283588328D01*
X387373398Y-283588328D02*
X387230541Y-283516900D01*
X387230541Y-283516900D02*
X387159112Y-283445471D01*
X387159112Y-283445471D02*
X387087684Y-283302614D01*
X387087684Y-283302614D02*
X387087684Y-282874042D01*
X387087684Y-282874042D02*
X387159112Y-282731185D01*
X387159112Y-282731185D02*
X387230541Y-282659757D01*
X387230541Y-282659757D02*
X387373398Y-282588328D01*
X387373398Y-282588328D02*
X387659112Y-282588328D01*
X387659112Y-282588328D02*
X387801970Y-282659757D01*
X388516255Y-283445471D02*
X388587684Y-283516900D01*
X388587684Y-283516900D02*
X388516255Y-283588328D01*
X388516255Y-283588328D02*
X388444827Y-283516900D01*
X388444827Y-283516900D02*
X388516255Y-283445471D01*
X388516255Y-283445471D02*
X388516255Y-283588328D01*
X388516255Y-282659757D02*
X388587684Y-282731185D01*
X388587684Y-282731185D02*
X388516255Y-282802614D01*
X388516255Y-282802614D02*
X388444827Y-282731185D01*
X388444827Y-282731185D02*
X388516255Y-282659757D01*
X388516255Y-282659757D02*
X388516255Y-282802614D01*
X391016256Y-282088328D02*
X390730541Y-282088328D01*
X390730541Y-282088328D02*
X390587684Y-282159757D01*
X390587684Y-282159757D02*
X390516256Y-282231185D01*
X390516256Y-282231185D02*
X390373398Y-282445471D01*
X390373398Y-282445471D02*
X390301970Y-282731185D01*
X390301970Y-282731185D02*
X390301970Y-283302614D01*
X390301970Y-283302614D02*
X390373398Y-283445471D01*
X390373398Y-283445471D02*
X390444827Y-283516900D01*
X390444827Y-283516900D02*
X390587684Y-283588328D01*
X390587684Y-283588328D02*
X390873398Y-283588328D01*
X390873398Y-283588328D02*
X391016256Y-283516900D01*
X391016256Y-283516900D02*
X391087684Y-283445471D01*
X391087684Y-283445471D02*
X391159113Y-283302614D01*
X391159113Y-283302614D02*
X391159113Y-282945471D01*
X391159113Y-282945471D02*
X391087684Y-282802614D01*
X391087684Y-282802614D02*
X391016256Y-282731185D01*
X391016256Y-282731185D02*
X390873398Y-282659757D01*
X390873398Y-282659757D02*
X390587684Y-282659757D01*
X390587684Y-282659757D02*
X390444827Y-282731185D01*
X390444827Y-282731185D02*
X390373398Y-282802614D01*
X390373398Y-282802614D02*
X390301970Y-282945471D01*
X392873398Y-282016900D02*
X391587684Y-283945471D01*
X393587684Y-282731185D02*
X393444827Y-282659757D01*
X393444827Y-282659757D02*
X393373398Y-282588328D01*
X393373398Y-282588328D02*
X393301970Y-282445471D01*
X393301970Y-282445471D02*
X393301970Y-282374042D01*
X393301970Y-282374042D02*
X393373398Y-282231185D01*
X393373398Y-282231185D02*
X393444827Y-282159757D01*
X393444827Y-282159757D02*
X393587684Y-282088328D01*
X393587684Y-282088328D02*
X393873398Y-282088328D01*
X393873398Y-282088328D02*
X394016256Y-282159757D01*
X394016256Y-282159757D02*
X394087684Y-282231185D01*
X394087684Y-282231185D02*
X394159113Y-282374042D01*
X394159113Y-282374042D02*
X394159113Y-282445471D01*
X394159113Y-282445471D02*
X394087684Y-282588328D01*
X394087684Y-282588328D02*
X394016256Y-282659757D01*
X394016256Y-282659757D02*
X393873398Y-282731185D01*
X393873398Y-282731185D02*
X393587684Y-282731185D01*
X393587684Y-282731185D02*
X393444827Y-282802614D01*
X393444827Y-282802614D02*
X393373398Y-282874042D01*
X393373398Y-282874042D02*
X393301970Y-283016900D01*
X393301970Y-283016900D02*
X393301970Y-283302614D01*
X393301970Y-283302614D02*
X393373398Y-283445471D01*
X393373398Y-283445471D02*
X393444827Y-283516900D01*
X393444827Y-283516900D02*
X393587684Y-283588328D01*
X393587684Y-283588328D02*
X393873398Y-283588328D01*
X393873398Y-283588328D02*
X394016256Y-283516900D01*
X394016256Y-283516900D02*
X394087684Y-283445471D01*
X394087684Y-283445471D02*
X394159113Y-283302614D01*
X394159113Y-283302614D02*
X394159113Y-283016900D01*
X394159113Y-283016900D02*
X394087684Y-282874042D01*
X394087684Y-282874042D02*
X394016256Y-282802614D01*
X394016256Y-282802614D02*
X393873398Y-282731185D01*
D10*
D11*
X299989000Y-274502200D02*
X407989000Y-274502200D01*
D10*
D13*
X301680728Y-275206638D02*
X302823585Y-275206638D01*
X302002157Y-277206638D02*
X302252157Y-275206638D01*
X303240252Y-277206638D02*
X303406919Y-275873304D01*
X303490252Y-275206638D02*
X303383109Y-275301876D01*
X303383109Y-275301876D02*
X303466443Y-275397114D01*
X303466443Y-275397114D02*
X303573586Y-275301876D01*
X303573586Y-275301876D02*
X303490252Y-275206638D01*
X303490252Y-275206638D02*
X303466443Y-275397114D01*
X304073586Y-275873304D02*
X304835490Y-275873304D01*
X304442633Y-275206638D02*
X304228348Y-276920923D01*
X304228348Y-276920923D02*
X304299776Y-277111400D01*
X304299776Y-277111400D02*
X304478348Y-277206638D01*
X304478348Y-277206638D02*
X304668824Y-277206638D01*
X305621205Y-277206638D02*
X305442633Y-277111400D01*
X305442633Y-277111400D02*
X305371205Y-276920923D01*
X305371205Y-276920923D02*
X305585490Y-275206638D01*
X307156919Y-277111400D02*
X306954538Y-277206638D01*
X306954538Y-277206638D02*
X306573585Y-277206638D01*
X306573585Y-277206638D02*
X306395014Y-277111400D01*
X306395014Y-277111400D02*
X306323585Y-276920923D01*
X306323585Y-276920923D02*
X306418824Y-276159019D01*
X306418824Y-276159019D02*
X306537871Y-275968542D01*
X306537871Y-275968542D02*
X306740252Y-275873304D01*
X306740252Y-275873304D02*
X307121204Y-275873304D01*
X307121204Y-275873304D02*
X307299776Y-275968542D01*
X307299776Y-275968542D02*
X307371204Y-276159019D01*
X307371204Y-276159019D02*
X307347395Y-276349495D01*
X307347395Y-276349495D02*
X306371204Y-276539971D01*
X308121205Y-277016161D02*
X308204538Y-277111400D01*
X308204538Y-277111400D02*
X308097395Y-277206638D01*
X308097395Y-277206638D02*
X308014062Y-277111400D01*
X308014062Y-277111400D02*
X308121205Y-277016161D01*
X308121205Y-277016161D02*
X308097395Y-277206638D01*
X308252157Y-275968542D02*
X308335490Y-276063780D01*
X308335490Y-276063780D02*
X308228348Y-276159019D01*
X308228348Y-276159019D02*
X308145014Y-276063780D01*
X308145014Y-276063780D02*
X308252157Y-275968542D01*
X308252157Y-275968542D02*
X308228348Y-276159019D01*
X311716443Y-277206638D02*
X311168824Y-276254257D01*
X310573586Y-277206638D02*
X310823586Y-275206638D01*
X310823586Y-275206638D02*
X311585491Y-275206638D01*
X311585491Y-275206638D02*
X311764062Y-275301876D01*
X311764062Y-275301876D02*
X311847396Y-275397114D01*
X311847396Y-275397114D02*
X311918824Y-275587590D01*
X311918824Y-275587590D02*
X311883110Y-275873304D01*
X311883110Y-275873304D02*
X311764062Y-276063780D01*
X311764062Y-276063780D02*
X311656920Y-276159019D01*
X311656920Y-276159019D02*
X311454539Y-276254257D01*
X311454539Y-276254257D02*
X310692634Y-276254257D01*
X312859301Y-277206638D02*
X312680729Y-277111400D01*
X312680729Y-277111400D02*
X312597396Y-277016161D01*
X312597396Y-277016161D02*
X312525967Y-276825685D01*
X312525967Y-276825685D02*
X312597396Y-276254257D01*
X312597396Y-276254257D02*
X312716443Y-276063780D01*
X312716443Y-276063780D02*
X312823586Y-275968542D01*
X312823586Y-275968542D02*
X313025967Y-275873304D01*
X313025967Y-275873304D02*
X313311681Y-275873304D01*
X313311681Y-275873304D02*
X313490253Y-275968542D01*
X313490253Y-275968542D02*
X313573586Y-276063780D01*
X313573586Y-276063780D02*
X313645015Y-276254257D01*
X313645015Y-276254257D02*
X313573586Y-276825685D01*
X313573586Y-276825685D02*
X313454539Y-277016161D01*
X313454539Y-277016161D02*
X313347396Y-277111400D01*
X313347396Y-277111400D02*
X313145015Y-277206638D01*
X313145015Y-277206638D02*
X312859301Y-277206638D01*
X314383110Y-277206638D02*
X314633110Y-275206638D01*
X314537872Y-275968542D02*
X314740253Y-275873304D01*
X314740253Y-275873304D02*
X315121205Y-275873304D01*
X315121205Y-275873304D02*
X315299777Y-275968542D01*
X315299777Y-275968542D02*
X315383110Y-276063780D01*
X315383110Y-276063780D02*
X315454539Y-276254257D01*
X315454539Y-276254257D02*
X315383110Y-276825685D01*
X315383110Y-276825685D02*
X315264063Y-277016161D01*
X315264063Y-277016161D02*
X315156920Y-277111400D01*
X315156920Y-277111400D02*
X314954539Y-277206638D01*
X314954539Y-277206638D02*
X314573586Y-277206638D01*
X314573586Y-277206638D02*
X314395015Y-277111400D01*
X316478349Y-277206638D02*
X316299777Y-277111400D01*
X316299777Y-277111400D02*
X316216444Y-277016161D01*
X316216444Y-277016161D02*
X316145015Y-276825685D01*
X316145015Y-276825685D02*
X316216444Y-276254257D01*
X316216444Y-276254257D02*
X316335491Y-276063780D01*
X316335491Y-276063780D02*
X316442634Y-275968542D01*
X316442634Y-275968542D02*
X316645015Y-275873304D01*
X316645015Y-275873304D02*
X316930729Y-275873304D01*
X316930729Y-275873304D02*
X317109301Y-275968542D01*
X317109301Y-275968542D02*
X317192634Y-276063780D01*
X317192634Y-276063780D02*
X317264063Y-276254257D01*
X317264063Y-276254257D02*
X317192634Y-276825685D01*
X317192634Y-276825685D02*
X317073587Y-277016161D01*
X317073587Y-277016161D02*
X316966444Y-277111400D01*
X316966444Y-277111400D02*
X316764063Y-277206638D01*
X316764063Y-277206638D02*
X316478349Y-277206638D01*
X317883111Y-275873304D02*
X318645015Y-275873304D01*
X318252158Y-275206638D02*
X318037873Y-276920923D01*
X318037873Y-276920923D02*
X318109301Y-277111400D01*
X318109301Y-277111400D02*
X318287873Y-277206638D01*
X318287873Y-277206638D02*
X318478349Y-277206638D01*
X320668825Y-277206638D02*
X320918825Y-275206638D01*
X320918825Y-275206638D02*
X321680730Y-275206638D01*
X321680730Y-275206638D02*
X321859301Y-275301876D01*
X321859301Y-275301876D02*
X321942635Y-275397114D01*
X321942635Y-275397114D02*
X322014063Y-275587590D01*
X322014063Y-275587590D02*
X321978349Y-275873304D01*
X321978349Y-275873304D02*
X321859301Y-276063780D01*
X321859301Y-276063780D02*
X321752159Y-276159019D01*
X321752159Y-276159019D02*
X321549778Y-276254257D01*
X321549778Y-276254257D02*
X320787873Y-276254257D01*
X322668825Y-277206638D02*
X322835492Y-275873304D01*
X322787873Y-276254257D02*
X322906920Y-276063780D01*
X322906920Y-276063780D02*
X323014063Y-275968542D01*
X323014063Y-275968542D02*
X323216444Y-275873304D01*
X323216444Y-275873304D02*
X323406920Y-275873304D01*
X323906920Y-277206638D02*
X324073587Y-275873304D01*
X324156920Y-275206638D02*
X324049777Y-275301876D01*
X324049777Y-275301876D02*
X324133111Y-275397114D01*
X324133111Y-275397114D02*
X324240254Y-275301876D01*
X324240254Y-275301876D02*
X324156920Y-275206638D01*
X324156920Y-275206638D02*
X324133111Y-275397114D01*
X325025968Y-275873304D02*
X324859301Y-277206638D01*
X325002158Y-276063780D02*
X325109301Y-275968542D01*
X325109301Y-275968542D02*
X325311682Y-275873304D01*
X325311682Y-275873304D02*
X325597396Y-275873304D01*
X325597396Y-275873304D02*
X325775968Y-275968542D01*
X325775968Y-275968542D02*
X325847396Y-276159019D01*
X325847396Y-276159019D02*
X325716444Y-277206638D01*
X326549778Y-275873304D02*
X327311682Y-275873304D01*
X326918825Y-275206638D02*
X326704540Y-276920923D01*
X326704540Y-276920923D02*
X326775968Y-277111400D01*
X326775968Y-277111400D02*
X326954540Y-277206638D01*
X326954540Y-277206638D02*
X327145016Y-277206638D01*
X328585492Y-277111400D02*
X328383111Y-277206638D01*
X328383111Y-277206638D02*
X328002158Y-277206638D01*
X328002158Y-277206638D02*
X327823587Y-277111400D01*
X327823587Y-277111400D02*
X327752158Y-276920923D01*
X327752158Y-276920923D02*
X327847397Y-276159019D01*
X327847397Y-276159019D02*
X327966444Y-275968542D01*
X327966444Y-275968542D02*
X328168825Y-275873304D01*
X328168825Y-275873304D02*
X328549777Y-275873304D01*
X328549777Y-275873304D02*
X328728349Y-275968542D01*
X328728349Y-275968542D02*
X328799777Y-276159019D01*
X328799777Y-276159019D02*
X328775968Y-276349495D01*
X328775968Y-276349495D02*
X327799777Y-276539971D01*
X330383111Y-277206638D02*
X330633111Y-275206638D01*
X330395016Y-277111400D02*
X330192635Y-277206638D01*
X330192635Y-277206638D02*
X329811683Y-277206638D01*
X329811683Y-277206638D02*
X329633111Y-277111400D01*
X329633111Y-277111400D02*
X329549778Y-277016161D01*
X329549778Y-277016161D02*
X329478349Y-276825685D01*
X329478349Y-276825685D02*
X329549778Y-276254257D01*
X329549778Y-276254257D02*
X329668825Y-276063780D01*
X329668825Y-276063780D02*
X329775968Y-275968542D01*
X329775968Y-275968542D02*
X329978349Y-275873304D01*
X329978349Y-275873304D02*
X330359302Y-275873304D01*
X330359302Y-275873304D02*
X330537873Y-275968542D01*
X334025969Y-277016161D02*
X333918826Y-277111400D01*
X333918826Y-277111400D02*
X333621207Y-277206638D01*
X333621207Y-277206638D02*
X333430731Y-277206638D01*
X333430731Y-277206638D02*
X333156921Y-277111400D01*
X333156921Y-277111400D02*
X332990255Y-276920923D01*
X332990255Y-276920923D02*
X332918826Y-276730447D01*
X332918826Y-276730447D02*
X332871207Y-276349495D01*
X332871207Y-276349495D02*
X332906921Y-276063780D01*
X332906921Y-276063780D02*
X333049778Y-275682828D01*
X333049778Y-275682828D02*
X333168826Y-275492352D01*
X333168826Y-275492352D02*
X333383112Y-275301876D01*
X333383112Y-275301876D02*
X333680731Y-275206638D01*
X333680731Y-275206638D02*
X333871207Y-275206638D01*
X333871207Y-275206638D02*
X334145017Y-275301876D01*
X334145017Y-275301876D02*
X334228350Y-275397114D01*
X334859302Y-277206638D02*
X335025969Y-275873304D01*
X335109302Y-275206638D02*
X335002159Y-275301876D01*
X335002159Y-275301876D02*
X335085493Y-275397114D01*
X335085493Y-275397114D02*
X335192636Y-275301876D01*
X335192636Y-275301876D02*
X335109302Y-275206638D01*
X335109302Y-275206638D02*
X335085493Y-275397114D01*
X335811683Y-277206638D02*
X335978350Y-275873304D01*
X335930731Y-276254257D02*
X336049778Y-276063780D01*
X336049778Y-276063780D02*
X336156921Y-275968542D01*
X336156921Y-275968542D02*
X336359302Y-275873304D01*
X336359302Y-275873304D02*
X336549778Y-275873304D01*
X337918826Y-277111400D02*
X337716445Y-277206638D01*
X337716445Y-277206638D02*
X337335493Y-277206638D01*
X337335493Y-277206638D02*
X337156921Y-277111400D01*
X337156921Y-277111400D02*
X337073588Y-277016161D01*
X337073588Y-277016161D02*
X337002159Y-276825685D01*
X337002159Y-276825685D02*
X337073588Y-276254257D01*
X337073588Y-276254257D02*
X337192635Y-276063780D01*
X337192635Y-276063780D02*
X337299778Y-275968542D01*
X337299778Y-275968542D02*
X337502159Y-275873304D01*
X337502159Y-275873304D02*
X337883112Y-275873304D01*
X337883112Y-275873304D02*
X338061683Y-275968542D01*
X339787874Y-275873304D02*
X339621207Y-277206638D01*
X338930731Y-275873304D02*
X338799779Y-276920923D01*
X338799779Y-276920923D02*
X338871207Y-277111400D01*
X338871207Y-277111400D02*
X339049779Y-277206638D01*
X339049779Y-277206638D02*
X339335493Y-277206638D01*
X339335493Y-277206638D02*
X339537874Y-277111400D01*
X339537874Y-277111400D02*
X339645017Y-277016161D01*
X340573588Y-277206638D02*
X340740255Y-275873304D01*
X340823588Y-275206638D02*
X340716445Y-275301876D01*
X340716445Y-275301876D02*
X340799779Y-275397114D01*
X340799779Y-275397114D02*
X340906922Y-275301876D01*
X340906922Y-275301876D02*
X340823588Y-275206638D01*
X340823588Y-275206638D02*
X340799779Y-275397114D01*
X341406922Y-275873304D02*
X342168826Y-275873304D01*
X341775969Y-275206638D02*
X341561684Y-276920923D01*
X341561684Y-276920923D02*
X341633112Y-277111400D01*
X341633112Y-277111400D02*
X341811684Y-277206638D01*
X341811684Y-277206638D02*
X342002160Y-277206638D01*
X344990255Y-276159019D02*
X345264065Y-276254257D01*
X345264065Y-276254257D02*
X345347398Y-276349495D01*
X345347398Y-276349495D02*
X345418827Y-276539971D01*
X345418827Y-276539971D02*
X345383112Y-276825685D01*
X345383112Y-276825685D02*
X345264065Y-277016161D01*
X345264065Y-277016161D02*
X345156922Y-277111400D01*
X345156922Y-277111400D02*
X344954541Y-277206638D01*
X344954541Y-277206638D02*
X344192636Y-277206638D01*
X344192636Y-277206638D02*
X344442636Y-275206638D01*
X344442636Y-275206638D02*
X345109303Y-275206638D01*
X345109303Y-275206638D02*
X345287874Y-275301876D01*
X345287874Y-275301876D02*
X345371208Y-275397114D01*
X345371208Y-275397114D02*
X345442636Y-275587590D01*
X345442636Y-275587590D02*
X345418827Y-275778066D01*
X345418827Y-275778066D02*
X345299779Y-275968542D01*
X345299779Y-275968542D02*
X345192636Y-276063780D01*
X345192636Y-276063780D02*
X344990255Y-276159019D01*
X344990255Y-276159019D02*
X344323589Y-276159019D01*
X346478351Y-277206638D02*
X346299779Y-277111400D01*
X346299779Y-277111400D02*
X346216446Y-277016161D01*
X346216446Y-277016161D02*
X346145017Y-276825685D01*
X346145017Y-276825685D02*
X346216446Y-276254257D01*
X346216446Y-276254257D02*
X346335493Y-276063780D01*
X346335493Y-276063780D02*
X346442636Y-275968542D01*
X346442636Y-275968542D02*
X346645017Y-275873304D01*
X346645017Y-275873304D02*
X346930731Y-275873304D01*
X346930731Y-275873304D02*
X347109303Y-275968542D01*
X347109303Y-275968542D02*
X347192636Y-276063780D01*
X347192636Y-276063780D02*
X347264065Y-276254257D01*
X347264065Y-276254257D02*
X347192636Y-276825685D01*
X347192636Y-276825685D02*
X347073589Y-277016161D01*
X347073589Y-277016161D02*
X346966446Y-277111400D01*
X346966446Y-277111400D02*
X346764065Y-277206638D01*
X346764065Y-277206638D02*
X346478351Y-277206638D01*
X348859303Y-277206638D02*
X348990255Y-276159019D01*
X348990255Y-276159019D02*
X348918827Y-275968542D01*
X348918827Y-275968542D02*
X348740255Y-275873304D01*
X348740255Y-275873304D02*
X348359303Y-275873304D01*
X348359303Y-275873304D02*
X348156922Y-275968542D01*
X348871208Y-277111400D02*
X348668827Y-277206638D01*
X348668827Y-277206638D02*
X348192636Y-277206638D01*
X348192636Y-277206638D02*
X348014065Y-277111400D01*
X348014065Y-277111400D02*
X347942636Y-276920923D01*
X347942636Y-276920923D02*
X347966446Y-276730447D01*
X347966446Y-276730447D02*
X348085494Y-276539971D01*
X348085494Y-276539971D02*
X348287875Y-276444733D01*
X348287875Y-276444733D02*
X348764065Y-276444733D01*
X348764065Y-276444733D02*
X348966446Y-276349495D01*
X349811684Y-277206638D02*
X349978351Y-275873304D01*
X349930732Y-276254257D02*
X350049779Y-276063780D01*
X350049779Y-276063780D02*
X350156922Y-275968542D01*
X350156922Y-275968542D02*
X350359303Y-275873304D01*
X350359303Y-275873304D02*
X350549779Y-275873304D01*
X351906922Y-277206638D02*
X352156922Y-275206638D01*
X351918827Y-277111400D02*
X351716446Y-277206638D01*
X351716446Y-277206638D02*
X351335494Y-277206638D01*
X351335494Y-277206638D02*
X351156922Y-277111400D01*
X351156922Y-277111400D02*
X351073589Y-277016161D01*
X351073589Y-277016161D02*
X351002160Y-276825685D01*
X351002160Y-276825685D02*
X351073589Y-276254257D01*
X351073589Y-276254257D02*
X351192636Y-276063780D01*
X351192636Y-276063780D02*
X351299779Y-275968542D01*
X351299779Y-275968542D02*
X351502160Y-275873304D01*
X351502160Y-275873304D02*
X351883113Y-275873304D01*
X351883113Y-275873304D02*
X352061684Y-275968542D01*
D10*
D11*
X301944826Y-272602614D02*
X301444826Y-272602614D01*
X301444826Y-273388328D02*
X301444826Y-271888328D01*
X301444826Y-271888328D02*
X302159112Y-271888328D01*
X302730540Y-273388328D02*
X302730540Y-272388328D01*
X302730540Y-271888328D02*
X302659112Y-271959757D01*
X302659112Y-271959757D02*
X302730540Y-272031185D01*
X302730540Y-272031185D02*
X302801969Y-271959757D01*
X302801969Y-271959757D02*
X302730540Y-271888328D01*
X302730540Y-271888328D02*
X302730540Y-272031185D01*
X303659112Y-273388328D02*
X303516255Y-273316900D01*
X303516255Y-273316900D02*
X303444826Y-273174042D01*
X303444826Y-273174042D02*
X303444826Y-271888328D01*
X304801969Y-273316900D02*
X304659112Y-273388328D01*
X304659112Y-273388328D02*
X304373398Y-273388328D01*
X304373398Y-273388328D02*
X304230540Y-273316900D01*
X304230540Y-273316900D02*
X304159112Y-273174042D01*
X304159112Y-273174042D02*
X304159112Y-272602614D01*
X304159112Y-272602614D02*
X304230540Y-272459757D01*
X304230540Y-272459757D02*
X304373398Y-272388328D01*
X304373398Y-272388328D02*
X304659112Y-272388328D01*
X304659112Y-272388328D02*
X304801969Y-272459757D01*
X304801969Y-272459757D02*
X304873398Y-272602614D01*
X304873398Y-272602614D02*
X304873398Y-272745471D01*
X304873398Y-272745471D02*
X304159112Y-272888328D01*
X305516254Y-273245471D02*
X305587683Y-273316900D01*
X305587683Y-273316900D02*
X305516254Y-273388328D01*
X305516254Y-273388328D02*
X305444826Y-273316900D01*
X305444826Y-273316900D02*
X305516254Y-273245471D01*
X305516254Y-273245471D02*
X305516254Y-273388328D01*
X305516254Y-272459757D02*
X305587683Y-272531185D01*
X305587683Y-272531185D02*
X305516254Y-272602614D01*
X305516254Y-272602614D02*
X305444826Y-272531185D01*
X305444826Y-272531185D02*
X305516254Y-272459757D01*
X305516254Y-272459757D02*
X305516254Y-272602614D01*
X307373397Y-273388328D02*
X307373397Y-271888328D01*
X307373397Y-271888328D02*
X307944826Y-271888328D01*
X307944826Y-271888328D02*
X308087683Y-271959757D01*
X308087683Y-271959757D02*
X308159112Y-272031185D01*
X308159112Y-272031185D02*
X308230540Y-272174042D01*
X308230540Y-272174042D02*
X308230540Y-272388328D01*
X308230540Y-272388328D02*
X308159112Y-272531185D01*
X308159112Y-272531185D02*
X308087683Y-272602614D01*
X308087683Y-272602614D02*
X307944826Y-272674042D01*
X307944826Y-272674042D02*
X307373397Y-272674042D01*
X309730540Y-273245471D02*
X309659112Y-273316900D01*
X309659112Y-273316900D02*
X309444826Y-273388328D01*
X309444826Y-273388328D02*
X309301969Y-273388328D01*
X309301969Y-273388328D02*
X309087683Y-273316900D01*
X309087683Y-273316900D02*
X308944826Y-273174042D01*
X308944826Y-273174042D02*
X308873397Y-273031185D01*
X308873397Y-273031185D02*
X308801969Y-272745471D01*
X308801969Y-272745471D02*
X308801969Y-272531185D01*
X308801969Y-272531185D02*
X308873397Y-272245471D01*
X308873397Y-272245471D02*
X308944826Y-272102614D01*
X308944826Y-272102614D02*
X309087683Y-271959757D01*
X309087683Y-271959757D02*
X309301969Y-271888328D01*
X309301969Y-271888328D02*
X309444826Y-271888328D01*
X309444826Y-271888328D02*
X309659112Y-271959757D01*
X309659112Y-271959757D02*
X309730540Y-272031185D01*
X310873397Y-272602614D02*
X311087683Y-272674042D01*
X311087683Y-272674042D02*
X311159112Y-272745471D01*
X311159112Y-272745471D02*
X311230540Y-272888328D01*
X311230540Y-272888328D02*
X311230540Y-273102614D01*
X311230540Y-273102614D02*
X311159112Y-273245471D01*
X311159112Y-273245471D02*
X311087683Y-273316900D01*
X311087683Y-273316900D02*
X310944826Y-273388328D01*
X310944826Y-273388328D02*
X310373397Y-273388328D01*
X310373397Y-273388328D02*
X310373397Y-271888328D01*
X310373397Y-271888328D02*
X310873397Y-271888328D01*
X310873397Y-271888328D02*
X311016255Y-271959757D01*
X311016255Y-271959757D02*
X311087683Y-272031185D01*
X311087683Y-272031185D02*
X311159112Y-272174042D01*
X311159112Y-272174042D02*
X311159112Y-272316900D01*
X311159112Y-272316900D02*
X311087683Y-272459757D01*
X311087683Y-272459757D02*
X311016255Y-272531185D01*
X311016255Y-272531185D02*
X310873397Y-272602614D01*
X310873397Y-272602614D02*
X310373397Y-272602614D01*
X313516254Y-272602614D02*
X313730540Y-272674042D01*
X313730540Y-272674042D02*
X313801969Y-272745471D01*
X313801969Y-272745471D02*
X313873397Y-272888328D01*
X313873397Y-272888328D02*
X313873397Y-273102614D01*
X313873397Y-273102614D02*
X313801969Y-273245471D01*
X313801969Y-273245471D02*
X313730540Y-273316900D01*
X313730540Y-273316900D02*
X313587683Y-273388328D01*
X313587683Y-273388328D02*
X313016254Y-273388328D01*
X313016254Y-273388328D02*
X313016254Y-271888328D01*
X313016254Y-271888328D02*
X313516254Y-271888328D01*
X313516254Y-271888328D02*
X313659112Y-271959757D01*
X313659112Y-271959757D02*
X313730540Y-272031185D01*
X313730540Y-272031185D02*
X313801969Y-272174042D01*
X313801969Y-272174042D02*
X313801969Y-272316900D01*
X313801969Y-272316900D02*
X313730540Y-272459757D01*
X313730540Y-272459757D02*
X313659112Y-272531185D01*
X313659112Y-272531185D02*
X313516254Y-272602614D01*
X313516254Y-272602614D02*
X313016254Y-272602614D01*
X314730540Y-273388328D02*
X314587683Y-273316900D01*
X314587683Y-273316900D02*
X314516254Y-273245471D01*
X314516254Y-273245471D02*
X314444826Y-273102614D01*
X314444826Y-273102614D02*
X314444826Y-272674042D01*
X314444826Y-272674042D02*
X314516254Y-272531185D01*
X314516254Y-272531185D02*
X314587683Y-272459757D01*
X314587683Y-272459757D02*
X314730540Y-272388328D01*
X314730540Y-272388328D02*
X314944826Y-272388328D01*
X314944826Y-272388328D02*
X315087683Y-272459757D01*
X315087683Y-272459757D02*
X315159112Y-272531185D01*
X315159112Y-272531185D02*
X315230540Y-272674042D01*
X315230540Y-272674042D02*
X315230540Y-273102614D01*
X315230540Y-273102614D02*
X315159112Y-273245471D01*
X315159112Y-273245471D02*
X315087683Y-273316900D01*
X315087683Y-273316900D02*
X314944826Y-273388328D01*
X314944826Y-273388328D02*
X314730540Y-273388328D01*
X316516255Y-273388328D02*
X316516255Y-272602614D01*
X316516255Y-272602614D02*
X316444826Y-272459757D01*
X316444826Y-272459757D02*
X316301969Y-272388328D01*
X316301969Y-272388328D02*
X316016255Y-272388328D01*
X316016255Y-272388328D02*
X315873397Y-272459757D01*
X316516255Y-273316900D02*
X316373397Y-273388328D01*
X316373397Y-273388328D02*
X316016255Y-273388328D01*
X316016255Y-273388328D02*
X315873397Y-273316900D01*
X315873397Y-273316900D02*
X315801969Y-273174042D01*
X315801969Y-273174042D02*
X315801969Y-273031185D01*
X315801969Y-273031185D02*
X315873397Y-272888328D01*
X315873397Y-272888328D02*
X316016255Y-272816900D01*
X316016255Y-272816900D02*
X316373397Y-272816900D01*
X316373397Y-272816900D02*
X316516255Y-272745471D01*
X317230540Y-273388328D02*
X317230540Y-272388328D01*
X317230540Y-272674042D02*
X317301969Y-272531185D01*
X317301969Y-272531185D02*
X317373398Y-272459757D01*
X317373398Y-272459757D02*
X317516255Y-272388328D01*
X317516255Y-272388328D02*
X317659112Y-272388328D01*
X318801969Y-273388328D02*
X318801969Y-271888328D01*
X318801969Y-273316900D02*
X318659111Y-273388328D01*
X318659111Y-273388328D02*
X318373397Y-273388328D01*
X318373397Y-273388328D02*
X318230540Y-273316900D01*
X318230540Y-273316900D02*
X318159111Y-273245471D01*
X318159111Y-273245471D02*
X318087683Y-273102614D01*
X318087683Y-273102614D02*
X318087683Y-272674042D01*
X318087683Y-272674042D02*
X318159111Y-272531185D01*
X318159111Y-272531185D02*
X318230540Y-272459757D01*
X318230540Y-272459757D02*
X318373397Y-272388328D01*
X318373397Y-272388328D02*
X318659111Y-272388328D01*
X318659111Y-272388328D02*
X318801969Y-272459757D01*
X319516254Y-273245471D02*
X319587683Y-273316900D01*
X319587683Y-273316900D02*
X319516254Y-273388328D01*
X319516254Y-273388328D02*
X319444826Y-273316900D01*
X319444826Y-273316900D02*
X319516254Y-273245471D01*
X319516254Y-273245471D02*
X319516254Y-273388328D01*
X320230540Y-273388328D02*
X320230540Y-271888328D01*
X320373398Y-272816900D02*
X320801969Y-273388328D01*
X320801969Y-272388328D02*
X320230540Y-272959757D01*
X321444826Y-273388328D02*
X321444826Y-272388328D01*
X321444826Y-271888328D02*
X321373398Y-271959757D01*
X321373398Y-271959757D02*
X321444826Y-272031185D01*
X321444826Y-272031185D02*
X321516255Y-271959757D01*
X321516255Y-271959757D02*
X321444826Y-271888328D01*
X321444826Y-271888328D02*
X321444826Y-272031185D01*
X322801970Y-273316900D02*
X322659112Y-273388328D01*
X322659112Y-273388328D02*
X322373398Y-273388328D01*
X322373398Y-273388328D02*
X322230541Y-273316900D01*
X322230541Y-273316900D02*
X322159112Y-273245471D01*
X322159112Y-273245471D02*
X322087684Y-273102614D01*
X322087684Y-273102614D02*
X322087684Y-272674042D01*
X322087684Y-272674042D02*
X322159112Y-272531185D01*
X322159112Y-272531185D02*
X322230541Y-272459757D01*
X322230541Y-272459757D02*
X322373398Y-272388328D01*
X322373398Y-272388328D02*
X322659112Y-272388328D01*
X322659112Y-272388328D02*
X322801970Y-272459757D01*
X324087684Y-273388328D02*
X324087684Y-272602614D01*
X324087684Y-272602614D02*
X324016255Y-272459757D01*
X324016255Y-272459757D02*
X323873398Y-272388328D01*
X323873398Y-272388328D02*
X323587684Y-272388328D01*
X323587684Y-272388328D02*
X323444826Y-272459757D01*
X324087684Y-273316900D02*
X323944826Y-273388328D01*
X323944826Y-273388328D02*
X323587684Y-273388328D01*
X323587684Y-273388328D02*
X323444826Y-273316900D01*
X323444826Y-273316900D02*
X323373398Y-273174042D01*
X323373398Y-273174042D02*
X323373398Y-273031185D01*
X323373398Y-273031185D02*
X323444826Y-272888328D01*
X323444826Y-272888328D02*
X323587684Y-272816900D01*
X323587684Y-272816900D02*
X323944826Y-272816900D01*
X323944826Y-272816900D02*
X324087684Y-272745471D01*
X325444827Y-273388328D02*
X325444827Y-271888328D01*
X325444827Y-273316900D02*
X325301969Y-273388328D01*
X325301969Y-273388328D02*
X325016255Y-273388328D01*
X325016255Y-273388328D02*
X324873398Y-273316900D01*
X324873398Y-273316900D02*
X324801969Y-273245471D01*
X324801969Y-273245471D02*
X324730541Y-273102614D01*
X324730541Y-273102614D02*
X324730541Y-272674042D01*
X324730541Y-272674042D02*
X324801969Y-272531185D01*
X324801969Y-272531185D02*
X324873398Y-272459757D01*
X324873398Y-272459757D02*
X325016255Y-272388328D01*
X325016255Y-272388328D02*
X325301969Y-272388328D01*
X325301969Y-272388328D02*
X325444827Y-272459757D01*
X325801970Y-273531185D02*
X326944827Y-273531185D01*
X327301969Y-272388328D02*
X327301969Y-273888328D01*
X327301969Y-272459757D02*
X327444827Y-272388328D01*
X327444827Y-272388328D02*
X327730541Y-272388328D01*
X327730541Y-272388328D02*
X327873398Y-272459757D01*
X327873398Y-272459757D02*
X327944827Y-272531185D01*
X327944827Y-272531185D02*
X328016255Y-272674042D01*
X328016255Y-272674042D02*
X328016255Y-273102614D01*
X328016255Y-273102614D02*
X327944827Y-273245471D01*
X327944827Y-273245471D02*
X327873398Y-273316900D01*
X327873398Y-273316900D02*
X327730541Y-273388328D01*
X327730541Y-273388328D02*
X327444827Y-273388328D01*
X327444827Y-273388328D02*
X327301969Y-273316900D01*
X329301970Y-273316900D02*
X329159112Y-273388328D01*
X329159112Y-273388328D02*
X328873398Y-273388328D01*
X328873398Y-273388328D02*
X328730541Y-273316900D01*
X328730541Y-273316900D02*
X328659112Y-273245471D01*
X328659112Y-273245471D02*
X328587684Y-273102614D01*
X328587684Y-273102614D02*
X328587684Y-272674042D01*
X328587684Y-272674042D02*
X328659112Y-272531185D01*
X328659112Y-272531185D02*
X328730541Y-272459757D01*
X328730541Y-272459757D02*
X328873398Y-272388328D01*
X328873398Y-272388328D02*
X329159112Y-272388328D01*
X329159112Y-272388328D02*
X329301970Y-272459757D01*
X329944826Y-273388328D02*
X329944826Y-271888328D01*
X329944826Y-272459757D02*
X330087684Y-272388328D01*
X330087684Y-272388328D02*
X330373398Y-272388328D01*
X330373398Y-272388328D02*
X330516255Y-272459757D01*
X330516255Y-272459757D02*
X330587684Y-272531185D01*
X330587684Y-272531185D02*
X330659112Y-272674042D01*
X330659112Y-272674042D02*
X330659112Y-273102614D01*
X330659112Y-273102614D02*
X330587684Y-273245471D01*
X330587684Y-273245471D02*
X330516255Y-273316900D01*
X330516255Y-273316900D02*
X330373398Y-273388328D01*
X330373398Y-273388328D02*
X330087684Y-273388328D01*
X330087684Y-273388328D02*
X329944826Y-273316900D01*
D10*
D11*
X299989000Y-268502200D02*
X407989000Y-268502200D01*
D10*
D11*
X301373398Y-270616900D02*
X301587684Y-270688328D01*
X301587684Y-270688328D02*
X301944826Y-270688328D01*
X301944826Y-270688328D02*
X302087684Y-270616900D01*
X302087684Y-270616900D02*
X302159112Y-270545471D01*
X302159112Y-270545471D02*
X302230541Y-270402614D01*
X302230541Y-270402614D02*
X302230541Y-270259757D01*
X302230541Y-270259757D02*
X302159112Y-270116900D01*
X302159112Y-270116900D02*
X302087684Y-270045471D01*
X302087684Y-270045471D02*
X301944826Y-269974042D01*
X301944826Y-269974042D02*
X301659112Y-269902614D01*
X301659112Y-269902614D02*
X301516255Y-269831185D01*
X301516255Y-269831185D02*
X301444826Y-269759757D01*
X301444826Y-269759757D02*
X301373398Y-269616900D01*
X301373398Y-269616900D02*
X301373398Y-269474042D01*
X301373398Y-269474042D02*
X301444826Y-269331185D01*
X301444826Y-269331185D02*
X301516255Y-269259757D01*
X301516255Y-269259757D02*
X301659112Y-269188328D01*
X301659112Y-269188328D02*
X302016255Y-269188328D01*
X302016255Y-269188328D02*
X302230541Y-269259757D01*
X302873397Y-270688328D02*
X302873397Y-269188328D01*
X303516255Y-270688328D02*
X303516255Y-269902614D01*
X303516255Y-269902614D02*
X303444826Y-269759757D01*
X303444826Y-269759757D02*
X303301969Y-269688328D01*
X303301969Y-269688328D02*
X303087683Y-269688328D01*
X303087683Y-269688328D02*
X302944826Y-269759757D01*
X302944826Y-269759757D02*
X302873397Y-269831185D01*
X304801969Y-270616900D02*
X304659112Y-270688328D01*
X304659112Y-270688328D02*
X304373398Y-270688328D01*
X304373398Y-270688328D02*
X304230540Y-270616900D01*
X304230540Y-270616900D02*
X304159112Y-270474042D01*
X304159112Y-270474042D02*
X304159112Y-269902614D01*
X304159112Y-269902614D02*
X304230540Y-269759757D01*
X304230540Y-269759757D02*
X304373398Y-269688328D01*
X304373398Y-269688328D02*
X304659112Y-269688328D01*
X304659112Y-269688328D02*
X304801969Y-269759757D01*
X304801969Y-269759757D02*
X304873398Y-269902614D01*
X304873398Y-269902614D02*
X304873398Y-270045471D01*
X304873398Y-270045471D02*
X304159112Y-270188328D01*
X306087683Y-270616900D02*
X305944826Y-270688328D01*
X305944826Y-270688328D02*
X305659112Y-270688328D01*
X305659112Y-270688328D02*
X305516254Y-270616900D01*
X305516254Y-270616900D02*
X305444826Y-270474042D01*
X305444826Y-270474042D02*
X305444826Y-269902614D01*
X305444826Y-269902614D02*
X305516254Y-269759757D01*
X305516254Y-269759757D02*
X305659112Y-269688328D01*
X305659112Y-269688328D02*
X305944826Y-269688328D01*
X305944826Y-269688328D02*
X306087683Y-269759757D01*
X306087683Y-269759757D02*
X306159112Y-269902614D01*
X306159112Y-269902614D02*
X306159112Y-270045471D01*
X306159112Y-270045471D02*
X305444826Y-270188328D01*
X306587683Y-269688328D02*
X307159111Y-269688328D01*
X306801968Y-269188328D02*
X306801968Y-270474042D01*
X306801968Y-270474042D02*
X306873397Y-270616900D01*
X306873397Y-270616900D02*
X307016254Y-270688328D01*
X307016254Y-270688328D02*
X307159111Y-270688328D01*
X307659111Y-270545471D02*
X307730540Y-270616900D01*
X307730540Y-270616900D02*
X307659111Y-270688328D01*
X307659111Y-270688328D02*
X307587683Y-270616900D01*
X307587683Y-270616900D02*
X307659111Y-270545471D01*
X307659111Y-270545471D02*
X307659111Y-270688328D01*
X307659111Y-269759757D02*
X307730540Y-269831185D01*
X307730540Y-269831185D02*
X307659111Y-269902614D01*
X307659111Y-269902614D02*
X307587683Y-269831185D01*
X307587683Y-269831185D02*
X307659111Y-269759757D01*
X307659111Y-269759757D02*
X307659111Y-269902614D01*
D10*
D12*
X301472082Y-267609100D02*
X301686368Y-267680528D01*
X301686368Y-267680528D02*
X302043510Y-267680528D01*
X302043510Y-267680528D02*
X302186368Y-267609100D01*
X302186368Y-267609100D02*
X302257796Y-267537671D01*
X302257796Y-267537671D02*
X302329225Y-267394814D01*
X302329225Y-267394814D02*
X302329225Y-267251957D01*
X302329225Y-267251957D02*
X302257796Y-267109100D01*
X302257796Y-267109100D02*
X302186368Y-267037671D01*
X302186368Y-267037671D02*
X302043510Y-266966242D01*
X302043510Y-266966242D02*
X301757796Y-266894814D01*
X301757796Y-266894814D02*
X301614939Y-266823385D01*
X301614939Y-266823385D02*
X301543510Y-266751957D01*
X301543510Y-266751957D02*
X301472082Y-266609100D01*
X301472082Y-266609100D02*
X301472082Y-266466242D01*
X301472082Y-266466242D02*
X301543510Y-266323385D01*
X301543510Y-266323385D02*
X301614939Y-266251957D01*
X301614939Y-266251957D02*
X301757796Y-266180528D01*
X301757796Y-266180528D02*
X302114939Y-266180528D01*
X302114939Y-266180528D02*
X302329225Y-266251957D01*
X303186367Y-267680528D02*
X303043510Y-267609100D01*
X303043510Y-267609100D02*
X302972081Y-267537671D01*
X302972081Y-267537671D02*
X302900653Y-267394814D01*
X302900653Y-267394814D02*
X302900653Y-266966242D01*
X302900653Y-266966242D02*
X302972081Y-266823385D01*
X302972081Y-266823385D02*
X303043510Y-266751957D01*
X303043510Y-266751957D02*
X303186367Y-266680528D01*
X303186367Y-266680528D02*
X303400653Y-266680528D01*
X303400653Y-266680528D02*
X303543510Y-266751957D01*
X303543510Y-266751957D02*
X303614939Y-266823385D01*
X303614939Y-266823385D02*
X303686367Y-266966242D01*
X303686367Y-266966242D02*
X303686367Y-267394814D01*
X303686367Y-267394814D02*
X303614939Y-267537671D01*
X303614939Y-267537671D02*
X303543510Y-267609100D01*
X303543510Y-267609100D02*
X303400653Y-267680528D01*
X303400653Y-267680528D02*
X303186367Y-267680528D01*
X304972082Y-266680528D02*
X304972082Y-267680528D01*
X304329224Y-266680528D02*
X304329224Y-267466242D01*
X304329224Y-267466242D02*
X304400653Y-267609100D01*
X304400653Y-267609100D02*
X304543510Y-267680528D01*
X304543510Y-267680528D02*
X304757796Y-267680528D01*
X304757796Y-267680528D02*
X304900653Y-267609100D01*
X304900653Y-267609100D02*
X304972082Y-267537671D01*
X305472082Y-266680528D02*
X306043510Y-266680528D01*
X305686367Y-266180528D02*
X305686367Y-267466242D01*
X305686367Y-267466242D02*
X305757796Y-267609100D01*
X305757796Y-267609100D02*
X305900653Y-267680528D01*
X305900653Y-267680528D02*
X306043510Y-267680528D01*
X306543510Y-267680528D02*
X306543510Y-266180528D01*
X307186368Y-267680528D02*
X307186368Y-266894814D01*
X307186368Y-266894814D02*
X307114939Y-266751957D01*
X307114939Y-266751957D02*
X306972082Y-266680528D01*
X306972082Y-266680528D02*
X306757796Y-266680528D01*
X306757796Y-266680528D02*
X306614939Y-266751957D01*
X306614939Y-266751957D02*
X306543510Y-266823385D01*
X308472082Y-267609100D02*
X308329225Y-267680528D01*
X308329225Y-267680528D02*
X308043511Y-267680528D01*
X308043511Y-267680528D02*
X307900653Y-267609100D01*
X307900653Y-267609100D02*
X307829225Y-267466242D01*
X307829225Y-267466242D02*
X307829225Y-266894814D01*
X307829225Y-266894814D02*
X307900653Y-266751957D01*
X307900653Y-266751957D02*
X308043511Y-266680528D01*
X308043511Y-266680528D02*
X308329225Y-266680528D01*
X308329225Y-266680528D02*
X308472082Y-266751957D01*
X308472082Y-266751957D02*
X308543511Y-266894814D01*
X308543511Y-266894814D02*
X308543511Y-267037671D01*
X308543511Y-267037671D02*
X307829225Y-267180528D01*
X309186367Y-267680528D02*
X309186367Y-266680528D01*
X309186367Y-266966242D02*
X309257796Y-266823385D01*
X309257796Y-266823385D02*
X309329225Y-266751957D01*
X309329225Y-266751957D02*
X309472082Y-266680528D01*
X309472082Y-266680528D02*
X309614939Y-266680528D01*
X310114938Y-266680528D02*
X310114938Y-267680528D01*
X310114938Y-266823385D02*
X310186367Y-266751957D01*
X310186367Y-266751957D02*
X310329224Y-266680528D01*
X310329224Y-266680528D02*
X310543510Y-266680528D01*
X310543510Y-266680528D02*
X310686367Y-266751957D01*
X310686367Y-266751957D02*
X310757796Y-266894814D01*
X310757796Y-266894814D02*
X310757796Y-267680528D01*
X312614938Y-266180528D02*
X312614938Y-267394814D01*
X312614938Y-267394814D02*
X312686367Y-267537671D01*
X312686367Y-267537671D02*
X312757796Y-267609100D01*
X312757796Y-267609100D02*
X312900653Y-267680528D01*
X312900653Y-267680528D02*
X313186367Y-267680528D01*
X313186367Y-267680528D02*
X313329224Y-267609100D01*
X313329224Y-267609100D02*
X313400653Y-267537671D01*
X313400653Y-267537671D02*
X313472081Y-267394814D01*
X313472081Y-267394814D02*
X313472081Y-266180528D01*
X313972082Y-266680528D02*
X314543510Y-266680528D01*
X314186367Y-266180528D02*
X314186367Y-267466242D01*
X314186367Y-267466242D02*
X314257796Y-267609100D01*
X314257796Y-267609100D02*
X314400653Y-267680528D01*
X314400653Y-267680528D02*
X314543510Y-267680528D01*
X315686368Y-267680528D02*
X315686368Y-266894814D01*
X315686368Y-266894814D02*
X315614939Y-266751957D01*
X315614939Y-266751957D02*
X315472082Y-266680528D01*
X315472082Y-266680528D02*
X315186368Y-266680528D01*
X315186368Y-266680528D02*
X315043510Y-266751957D01*
X315686368Y-267609100D02*
X315543510Y-267680528D01*
X315543510Y-267680528D02*
X315186368Y-267680528D01*
X315186368Y-267680528D02*
X315043510Y-267609100D01*
X315043510Y-267609100D02*
X314972082Y-267466242D01*
X314972082Y-267466242D02*
X314972082Y-267323385D01*
X314972082Y-267323385D02*
X315043510Y-267180528D01*
X315043510Y-267180528D02*
X315186368Y-267109100D01*
X315186368Y-267109100D02*
X315543510Y-267109100D01*
X315543510Y-267109100D02*
X315686368Y-267037671D01*
X316400653Y-267680528D02*
X316400653Y-266180528D01*
X317043511Y-267680528D02*
X317043511Y-266894814D01*
X317043511Y-266894814D02*
X316972082Y-266751957D01*
X316972082Y-266751957D02*
X316829225Y-266680528D01*
X316829225Y-266680528D02*
X316614939Y-266680528D01*
X316614939Y-266680528D02*
X316472082Y-266751957D01*
X316472082Y-266751957D02*
X316400653Y-266823385D01*
X318900653Y-266180528D02*
X318900653Y-267394814D01*
X318900653Y-267394814D02*
X318972082Y-267537671D01*
X318972082Y-267537671D02*
X319043511Y-267609100D01*
X319043511Y-267609100D02*
X319186368Y-267680528D01*
X319186368Y-267680528D02*
X319472082Y-267680528D01*
X319472082Y-267680528D02*
X319614939Y-267609100D01*
X319614939Y-267609100D02*
X319686368Y-267537671D01*
X319686368Y-267537671D02*
X319757796Y-267394814D01*
X319757796Y-267394814D02*
X319757796Y-266180528D01*
X320472082Y-266680528D02*
X320472082Y-267680528D01*
X320472082Y-266823385D02*
X320543511Y-266751957D01*
X320543511Y-266751957D02*
X320686368Y-266680528D01*
X320686368Y-266680528D02*
X320900654Y-266680528D01*
X320900654Y-266680528D02*
X321043511Y-266751957D01*
X321043511Y-266751957D02*
X321114940Y-266894814D01*
X321114940Y-266894814D02*
X321114940Y-267680528D01*
X321829225Y-267680528D02*
X321829225Y-266680528D01*
X321829225Y-266180528D02*
X321757797Y-266251957D01*
X321757797Y-266251957D02*
X321829225Y-266323385D01*
X321829225Y-266323385D02*
X321900654Y-266251957D01*
X321900654Y-266251957D02*
X321829225Y-266180528D01*
X321829225Y-266180528D02*
X321829225Y-266323385D01*
X322400654Y-266680528D02*
X322757797Y-267680528D01*
X322757797Y-267680528D02*
X323114940Y-266680528D01*
X324257797Y-267609100D02*
X324114940Y-267680528D01*
X324114940Y-267680528D02*
X323829226Y-267680528D01*
X323829226Y-267680528D02*
X323686368Y-267609100D01*
X323686368Y-267609100D02*
X323614940Y-267466242D01*
X323614940Y-267466242D02*
X323614940Y-266894814D01*
X323614940Y-266894814D02*
X323686368Y-266751957D01*
X323686368Y-266751957D02*
X323829226Y-266680528D01*
X323829226Y-266680528D02*
X324114940Y-266680528D01*
X324114940Y-266680528D02*
X324257797Y-266751957D01*
X324257797Y-266751957D02*
X324329226Y-266894814D01*
X324329226Y-266894814D02*
X324329226Y-267037671D01*
X324329226Y-267037671D02*
X323614940Y-267180528D01*
X324972082Y-267680528D02*
X324972082Y-266680528D01*
X324972082Y-266966242D02*
X325043511Y-266823385D01*
X325043511Y-266823385D02*
X325114940Y-266751957D01*
X325114940Y-266751957D02*
X325257797Y-266680528D01*
X325257797Y-266680528D02*
X325400654Y-266680528D01*
X325829225Y-267609100D02*
X325972082Y-267680528D01*
X325972082Y-267680528D02*
X326257796Y-267680528D01*
X326257796Y-267680528D02*
X326400653Y-267609100D01*
X326400653Y-267609100D02*
X326472082Y-267466242D01*
X326472082Y-267466242D02*
X326472082Y-267394814D01*
X326472082Y-267394814D02*
X326400653Y-267251957D01*
X326400653Y-267251957D02*
X326257796Y-267180528D01*
X326257796Y-267180528D02*
X326043511Y-267180528D01*
X326043511Y-267180528D02*
X325900653Y-267109100D01*
X325900653Y-267109100D02*
X325829225Y-266966242D01*
X325829225Y-266966242D02*
X325829225Y-266894814D01*
X325829225Y-266894814D02*
X325900653Y-266751957D01*
X325900653Y-266751957D02*
X326043511Y-266680528D01*
X326043511Y-266680528D02*
X326257796Y-266680528D01*
X326257796Y-266680528D02*
X326400653Y-266751957D01*
X327114939Y-267680528D02*
X327114939Y-266680528D01*
X327114939Y-266180528D02*
X327043511Y-266251957D01*
X327043511Y-266251957D02*
X327114939Y-266323385D01*
X327114939Y-266323385D02*
X327186368Y-266251957D01*
X327186368Y-266251957D02*
X327114939Y-266180528D01*
X327114939Y-266180528D02*
X327114939Y-266323385D01*
X327614940Y-266680528D02*
X328186368Y-266680528D01*
X327829225Y-266180528D02*
X327829225Y-267466242D01*
X327829225Y-267466242D02*
X327900654Y-267609100D01*
X327900654Y-267609100D02*
X328043511Y-267680528D01*
X328043511Y-267680528D02*
X328186368Y-267680528D01*
X328543511Y-266680528D02*
X328900654Y-267680528D01*
X329257797Y-266680528D02*
X328900654Y-267680528D01*
X328900654Y-267680528D02*
X328757797Y-268037671D01*
X328757797Y-268037671D02*
X328686368Y-268109100D01*
X328686368Y-268109100D02*
X328543511Y-268180528D01*
X331329225Y-268180528D02*
X331329225Y-266037671D01*
X333472082Y-267251957D02*
X334186368Y-267251957D01*
X333329225Y-267680528D02*
X333829225Y-266180528D01*
X333829225Y-266180528D02*
X334329225Y-267680528D01*
X334829224Y-267680528D02*
X334829224Y-266180528D01*
X337900653Y-267680528D02*
X337829225Y-267680528D01*
X337829225Y-267680528D02*
X337686367Y-267609100D01*
X337686367Y-267609100D02*
X337472082Y-267394814D01*
X337472082Y-267394814D02*
X337114939Y-266966242D01*
X337114939Y-266966242D02*
X336972082Y-266751957D01*
X336972082Y-266751957D02*
X336900653Y-266537671D01*
X336900653Y-266537671D02*
X336900653Y-266394814D01*
X336900653Y-266394814D02*
X336972082Y-266251957D01*
X336972082Y-266251957D02*
X337114939Y-266180528D01*
X337114939Y-266180528D02*
X337186367Y-266180528D01*
X337186367Y-266180528D02*
X337329225Y-266251957D01*
X337329225Y-266251957D02*
X337400653Y-266394814D01*
X337400653Y-266394814D02*
X337400653Y-266466242D01*
X337400653Y-266466242D02*
X337329225Y-266609100D01*
X337329225Y-266609100D02*
X337257796Y-266680528D01*
X337257796Y-266680528D02*
X336829225Y-266966242D01*
X336829225Y-266966242D02*
X336757796Y-267037671D01*
X336757796Y-267037671D02*
X336686367Y-267180528D01*
X336686367Y-267180528D02*
X336686367Y-267394814D01*
X336686367Y-267394814D02*
X336757796Y-267537671D01*
X336757796Y-267537671D02*
X336829225Y-267609100D01*
X336829225Y-267609100D02*
X336972082Y-267680528D01*
X336972082Y-267680528D02*
X337186367Y-267680528D01*
X337186367Y-267680528D02*
X337329225Y-267609100D01*
X337329225Y-267609100D02*
X337400653Y-267537671D01*
X337400653Y-267537671D02*
X337614939Y-267251957D01*
X337614939Y-267251957D02*
X337686367Y-267037671D01*
X337686367Y-267037671D02*
X337686367Y-266894814D01*
X339686367Y-267680528D02*
X339686367Y-266180528D01*
X339686367Y-266180528D02*
X340186367Y-267251957D01*
X340186367Y-267251957D02*
X340686367Y-266180528D01*
X340686367Y-266180528D02*
X340686367Y-267680528D01*
X342114939Y-267680528D02*
X341400653Y-267680528D01*
X341400653Y-267680528D02*
X341400653Y-266180528D01*
X344472082Y-267680528D02*
X343757796Y-267680528D01*
X343757796Y-267680528D02*
X343757796Y-266180528D01*
X344900654Y-267251957D02*
X345614940Y-267251957D01*
X344757797Y-267680528D02*
X345257797Y-266180528D01*
X345257797Y-266180528D02*
X345757797Y-267680528D01*
X346757796Y-266894814D02*
X346972082Y-266966242D01*
X346972082Y-266966242D02*
X347043511Y-267037671D01*
X347043511Y-267037671D02*
X347114939Y-267180528D01*
X347114939Y-267180528D02*
X347114939Y-267394814D01*
X347114939Y-267394814D02*
X347043511Y-267537671D01*
X347043511Y-267537671D02*
X346972082Y-267609100D01*
X346972082Y-267609100D02*
X346829225Y-267680528D01*
X346829225Y-267680528D02*
X346257796Y-267680528D01*
X346257796Y-267680528D02*
X346257796Y-266180528D01*
X346257796Y-266180528D02*
X346757796Y-266180528D01*
X346757796Y-266180528D02*
X346900654Y-266251957D01*
X346900654Y-266251957D02*
X346972082Y-266323385D01*
X346972082Y-266323385D02*
X347043511Y-266466242D01*
X347043511Y-266466242D02*
X347043511Y-266609100D01*
X347043511Y-266609100D02*
X346972082Y-266751957D01*
X346972082Y-266751957D02*
X346900654Y-266823385D01*
X346900654Y-266823385D02*
X346757796Y-266894814D01*
X346757796Y-266894814D02*
X346257796Y-266894814D01*
D10*
D11*
X302087684Y-264688328D02*
X302087684Y-263902614D01*
X302087684Y-263902614D02*
X302016255Y-263759757D01*
X302016255Y-263759757D02*
X301873398Y-263688328D01*
X301873398Y-263688328D02*
X301587684Y-263688328D01*
X301587684Y-263688328D02*
X301444826Y-263759757D01*
X302087684Y-264616900D02*
X301944826Y-264688328D01*
X301944826Y-264688328D02*
X301587684Y-264688328D01*
X301587684Y-264688328D02*
X301444826Y-264616900D01*
X301444826Y-264616900D02*
X301373398Y-264474042D01*
X301373398Y-264474042D02*
X301373398Y-264331185D01*
X301373398Y-264331185D02*
X301444826Y-264188328D01*
X301444826Y-264188328D02*
X301587684Y-264116900D01*
X301587684Y-264116900D02*
X301944826Y-264116900D01*
X301944826Y-264116900D02*
X302087684Y-264045471D01*
X302801969Y-264688328D02*
X302801969Y-263188328D01*
X303444827Y-264688328D02*
X303444827Y-263902614D01*
X303444827Y-263902614D02*
X303373398Y-263759757D01*
X303373398Y-263759757D02*
X303230541Y-263688328D01*
X303230541Y-263688328D02*
X303016255Y-263688328D01*
X303016255Y-263688328D02*
X302873398Y-263759757D01*
X302873398Y-263759757D02*
X302801969Y-263831185D01*
X304159112Y-264688328D02*
X304159112Y-263688328D01*
X304159112Y-263831185D02*
X304230541Y-263759757D01*
X304230541Y-263759757D02*
X304373398Y-263688328D01*
X304373398Y-263688328D02*
X304587684Y-263688328D01*
X304587684Y-263688328D02*
X304730541Y-263759757D01*
X304730541Y-263759757D02*
X304801970Y-263902614D01*
X304801970Y-263902614D02*
X304801970Y-264688328D01*
X304801970Y-263902614D02*
X304873398Y-263759757D01*
X304873398Y-263759757D02*
X305016255Y-263688328D01*
X305016255Y-263688328D02*
X305230541Y-263688328D01*
X305230541Y-263688328D02*
X305373398Y-263759757D01*
X305373398Y-263759757D02*
X305444827Y-263902614D01*
X305444827Y-263902614D02*
X305444827Y-264688328D01*
X306730541Y-264616900D02*
X306587684Y-264688328D01*
X306587684Y-264688328D02*
X306301970Y-264688328D01*
X306301970Y-264688328D02*
X306159112Y-264616900D01*
X306159112Y-264616900D02*
X306087684Y-264474042D01*
X306087684Y-264474042D02*
X306087684Y-263902614D01*
X306087684Y-263902614D02*
X306159112Y-263759757D01*
X306159112Y-263759757D02*
X306301970Y-263688328D01*
X306301970Y-263688328D02*
X306587684Y-263688328D01*
X306587684Y-263688328D02*
X306730541Y-263759757D01*
X306730541Y-263759757D02*
X306801970Y-263902614D01*
X306801970Y-263902614D02*
X306801970Y-264045471D01*
X306801970Y-264045471D02*
X306087684Y-264188328D01*
X308087684Y-264688328D02*
X308087684Y-263188328D01*
X308087684Y-264616900D02*
X307944826Y-264688328D01*
X307944826Y-264688328D02*
X307659112Y-264688328D01*
X307659112Y-264688328D02*
X307516255Y-264616900D01*
X307516255Y-264616900D02*
X307444826Y-264545471D01*
X307444826Y-264545471D02*
X307373398Y-264402614D01*
X307373398Y-264402614D02*
X307373398Y-263974042D01*
X307373398Y-263974042D02*
X307444826Y-263831185D01*
X307444826Y-263831185D02*
X307516255Y-263759757D01*
X307516255Y-263759757D02*
X307659112Y-263688328D01*
X307659112Y-263688328D02*
X307944826Y-263688328D01*
X307944826Y-263688328D02*
X308087684Y-263759757D01*
X309444827Y-264688328D02*
X309444827Y-263902614D01*
X309444827Y-263902614D02*
X309373398Y-263759757D01*
X309373398Y-263759757D02*
X309230541Y-263688328D01*
X309230541Y-263688328D02*
X308944827Y-263688328D01*
X308944827Y-263688328D02*
X308801969Y-263759757D01*
X309444827Y-264616900D02*
X309301969Y-264688328D01*
X309301969Y-264688328D02*
X308944827Y-264688328D01*
X308944827Y-264688328D02*
X308801969Y-264616900D01*
X308801969Y-264616900D02*
X308730541Y-264474042D01*
X308730541Y-264474042D02*
X308730541Y-264331185D01*
X308730541Y-264331185D02*
X308801969Y-264188328D01*
X308801969Y-264188328D02*
X308944827Y-264116900D01*
X308944827Y-264116900D02*
X309301969Y-264116900D01*
X309301969Y-264116900D02*
X309444827Y-264045471D01*
X310159112Y-264688328D02*
X310159112Y-263688328D01*
X310159112Y-263831185D02*
X310230541Y-263759757D01*
X310230541Y-263759757D02*
X310373398Y-263688328D01*
X310373398Y-263688328D02*
X310587684Y-263688328D01*
X310587684Y-263688328D02*
X310730541Y-263759757D01*
X310730541Y-263759757D02*
X310801970Y-263902614D01*
X310801970Y-263902614D02*
X310801970Y-264688328D01*
X310801970Y-263902614D02*
X310873398Y-263759757D01*
X310873398Y-263759757D02*
X311016255Y-263688328D01*
X311016255Y-263688328D02*
X311230541Y-263688328D01*
X311230541Y-263688328D02*
X311373398Y-263759757D01*
X311373398Y-263759757D02*
X311444827Y-263902614D01*
X311444827Y-263902614D02*
X311444827Y-264688328D01*
X312159112Y-264688328D02*
X312159112Y-263688328D01*
X312159112Y-263188328D02*
X312087684Y-263259757D01*
X312087684Y-263259757D02*
X312159112Y-263331185D01*
X312159112Y-263331185D02*
X312230541Y-263259757D01*
X312230541Y-263259757D02*
X312159112Y-263188328D01*
X312159112Y-263188328D02*
X312159112Y-263331185D01*
X312873398Y-263688328D02*
X312873398Y-264688328D01*
X312873398Y-263831185D02*
X312944827Y-263759757D01*
X312944827Y-263759757D02*
X313087684Y-263688328D01*
X313087684Y-263688328D02*
X313301970Y-263688328D01*
X313301970Y-263688328D02*
X313444827Y-263759757D01*
X313444827Y-263759757D02*
X313516256Y-263902614D01*
X313516256Y-263902614D02*
X313516256Y-264688328D01*
X315159113Y-263974042D02*
X315087684Y-263902614D01*
X315087684Y-263902614D02*
X314944827Y-263831185D01*
X314944827Y-263831185D02*
X314801970Y-263831185D01*
X314801970Y-263831185D02*
X314659113Y-263902614D01*
X314659113Y-263902614D02*
X314587684Y-263974042D01*
X314587684Y-263974042D02*
X314516256Y-264116900D01*
X314516256Y-264116900D02*
X314516256Y-264259757D01*
X314516256Y-264259757D02*
X314587684Y-264402614D01*
X314587684Y-264402614D02*
X314659113Y-264474042D01*
X314659113Y-264474042D02*
X314801970Y-264545471D01*
X314801970Y-264545471D02*
X314944827Y-264545471D01*
X314944827Y-264545471D02*
X315087684Y-264474042D01*
X315087684Y-264474042D02*
X315159113Y-264402614D01*
X315159113Y-263831185D02*
X315159113Y-264402614D01*
X315159113Y-264402614D02*
X315230541Y-264474042D01*
X315230541Y-264474042D02*
X315301970Y-264474042D01*
X315301970Y-264474042D02*
X315444827Y-264402614D01*
X315444827Y-264402614D02*
X315516256Y-264259757D01*
X315516256Y-264259757D02*
X315516256Y-263902614D01*
X315516256Y-263902614D02*
X315373399Y-263688328D01*
X315373399Y-263688328D02*
X315159113Y-263545471D01*
X315159113Y-263545471D02*
X314873399Y-263474042D01*
X314873399Y-263474042D02*
X314587684Y-263545471D01*
X314587684Y-263545471D02*
X314373399Y-263688328D01*
X314373399Y-263688328D02*
X314230541Y-263902614D01*
X314230541Y-263902614D02*
X314159113Y-264188328D01*
X314159113Y-264188328D02*
X314230541Y-264474042D01*
X314230541Y-264474042D02*
X314373399Y-264688328D01*
X314373399Y-264688328D02*
X314587684Y-264831185D01*
X314587684Y-264831185D02*
X314873399Y-264902614D01*
X314873399Y-264902614D02*
X315159113Y-264831185D01*
X315159113Y-264831185D02*
X315373399Y-264688328D01*
X316087684Y-264616900D02*
X316230541Y-264688328D01*
X316230541Y-264688328D02*
X316516255Y-264688328D01*
X316516255Y-264688328D02*
X316659112Y-264616900D01*
X316659112Y-264616900D02*
X316730541Y-264474042D01*
X316730541Y-264474042D02*
X316730541Y-264402614D01*
X316730541Y-264402614D02*
X316659112Y-264259757D01*
X316659112Y-264259757D02*
X316516255Y-264188328D01*
X316516255Y-264188328D02*
X316301970Y-264188328D01*
X316301970Y-264188328D02*
X316159112Y-264116900D01*
X316159112Y-264116900D02*
X316087684Y-263974042D01*
X316087684Y-263974042D02*
X316087684Y-263902614D01*
X316087684Y-263902614D02*
X316159112Y-263759757D01*
X316159112Y-263759757D02*
X316301970Y-263688328D01*
X316301970Y-263688328D02*
X316516255Y-263688328D01*
X316516255Y-263688328D02*
X316659112Y-263759757D01*
X318016256Y-263688328D02*
X318016256Y-264688328D01*
X317373398Y-263688328D02*
X317373398Y-264474042D01*
X317373398Y-264474042D02*
X317444827Y-264616900D01*
X317444827Y-264616900D02*
X317587684Y-264688328D01*
X317587684Y-264688328D02*
X317801970Y-264688328D01*
X317801970Y-264688328D02*
X317944827Y-264616900D01*
X317944827Y-264616900D02*
X318016256Y-264545471D01*
X319373399Y-263688328D02*
X319373399Y-264688328D01*
X318730541Y-263688328D02*
X318730541Y-264474042D01*
X318730541Y-264474042D02*
X318801970Y-264616900D01*
X318801970Y-264616900D02*
X318944827Y-264688328D01*
X318944827Y-264688328D02*
X319159113Y-264688328D01*
X319159113Y-264688328D02*
X319301970Y-264616900D01*
X319301970Y-264616900D02*
X319373399Y-264545471D01*
X320087684Y-264688328D02*
X320087684Y-263688328D01*
X320087684Y-263831185D02*
X320159113Y-263759757D01*
X320159113Y-263759757D02*
X320301970Y-263688328D01*
X320301970Y-263688328D02*
X320516256Y-263688328D01*
X320516256Y-263688328D02*
X320659113Y-263759757D01*
X320659113Y-263759757D02*
X320730542Y-263902614D01*
X320730542Y-263902614D02*
X320730542Y-264688328D01*
X320730542Y-263902614D02*
X320801970Y-263759757D01*
X320801970Y-263759757D02*
X320944827Y-263688328D01*
X320944827Y-263688328D02*
X321159113Y-263688328D01*
X321159113Y-263688328D02*
X321301970Y-263759757D01*
X321301970Y-263759757D02*
X321373399Y-263902614D01*
X321373399Y-263902614D02*
X321373399Y-264688328D01*
X322730542Y-264688328D02*
X322730542Y-263902614D01*
X322730542Y-263902614D02*
X322659113Y-263759757D01*
X322659113Y-263759757D02*
X322516256Y-263688328D01*
X322516256Y-263688328D02*
X322230542Y-263688328D01*
X322230542Y-263688328D02*
X322087684Y-263759757D01*
X322730542Y-264616900D02*
X322587684Y-264688328D01*
X322587684Y-264688328D02*
X322230542Y-264688328D01*
X322230542Y-264688328D02*
X322087684Y-264616900D01*
X322087684Y-264616900D02*
X322016256Y-264474042D01*
X322016256Y-264474042D02*
X322016256Y-264331185D01*
X322016256Y-264331185D02*
X322087684Y-264188328D01*
X322087684Y-264188328D02*
X322230542Y-264116900D01*
X322230542Y-264116900D02*
X322587684Y-264116900D01*
X322587684Y-264116900D02*
X322730542Y-264045471D01*
X323444827Y-264688328D02*
X323444827Y-263688328D01*
X323444827Y-263188328D02*
X323373399Y-263259757D01*
X323373399Y-263259757D02*
X323444827Y-263331185D01*
X323444827Y-263331185D02*
X323516256Y-263259757D01*
X323516256Y-263259757D02*
X323444827Y-263188328D01*
X323444827Y-263188328D02*
X323444827Y-263331185D01*
X324373399Y-264688328D02*
X324230542Y-264616900D01*
X324230542Y-264616900D02*
X324159113Y-264474042D01*
X324159113Y-264474042D02*
X324159113Y-263188328D01*
X324944827Y-264545471D02*
X325016256Y-264616900D01*
X325016256Y-264616900D02*
X324944827Y-264688328D01*
X324944827Y-264688328D02*
X324873399Y-264616900D01*
X324873399Y-264616900D02*
X324944827Y-264545471D01*
X324944827Y-264545471D02*
X324944827Y-264688328D01*
X326301971Y-264616900D02*
X326159113Y-264688328D01*
X326159113Y-264688328D02*
X325873399Y-264688328D01*
X325873399Y-264688328D02*
X325730542Y-264616900D01*
X325730542Y-264616900D02*
X325659113Y-264545471D01*
X325659113Y-264545471D02*
X325587685Y-264402614D01*
X325587685Y-264402614D02*
X325587685Y-263974042D01*
X325587685Y-263974042D02*
X325659113Y-263831185D01*
X325659113Y-263831185D02*
X325730542Y-263759757D01*
X325730542Y-263759757D02*
X325873399Y-263688328D01*
X325873399Y-263688328D02*
X326159113Y-263688328D01*
X326159113Y-263688328D02*
X326301971Y-263759757D01*
X327159113Y-264688328D02*
X327016256Y-264616900D01*
X327016256Y-264616900D02*
X326944827Y-264545471D01*
X326944827Y-264545471D02*
X326873399Y-264402614D01*
X326873399Y-264402614D02*
X326873399Y-263974042D01*
X326873399Y-263974042D02*
X326944827Y-263831185D01*
X326944827Y-263831185D02*
X327016256Y-263759757D01*
X327016256Y-263759757D02*
X327159113Y-263688328D01*
X327159113Y-263688328D02*
X327373399Y-263688328D01*
X327373399Y-263688328D02*
X327516256Y-263759757D01*
X327516256Y-263759757D02*
X327587685Y-263831185D01*
X327587685Y-263831185D02*
X327659113Y-263974042D01*
X327659113Y-263974042D02*
X327659113Y-264402614D01*
X327659113Y-264402614D02*
X327587685Y-264545471D01*
X327587685Y-264545471D02*
X327516256Y-264616900D01*
X327516256Y-264616900D02*
X327373399Y-264688328D01*
X327373399Y-264688328D02*
X327159113Y-264688328D01*
X328301970Y-264688328D02*
X328301970Y-263688328D01*
X328301970Y-263831185D02*
X328373399Y-263759757D01*
X328373399Y-263759757D02*
X328516256Y-263688328D01*
X328516256Y-263688328D02*
X328730542Y-263688328D01*
X328730542Y-263688328D02*
X328873399Y-263759757D01*
X328873399Y-263759757D02*
X328944828Y-263902614D01*
X328944828Y-263902614D02*
X328944828Y-264688328D01*
X328944828Y-263902614D02*
X329016256Y-263759757D01*
X329016256Y-263759757D02*
X329159113Y-263688328D01*
X329159113Y-263688328D02*
X329373399Y-263688328D01*
X329373399Y-263688328D02*
X329516256Y-263759757D01*
X329516256Y-263759757D02*
X329587685Y-263902614D01*
X329587685Y-263902614D02*
X329587685Y-264688328D01*
D10*
D11*
X301373398Y-261259757D02*
X302087684Y-261259757D01*
X301230541Y-261688328D02*
X301730541Y-260188328D01*
X301730541Y-260188328D02*
X302230541Y-261688328D01*
X302730540Y-261688328D02*
X302730540Y-260188328D01*
X303373398Y-261688328D02*
X303373398Y-260902614D01*
X303373398Y-260902614D02*
X303301969Y-260759757D01*
X303301969Y-260759757D02*
X303159112Y-260688328D01*
X303159112Y-260688328D02*
X302944826Y-260688328D01*
X302944826Y-260688328D02*
X302801969Y-260759757D01*
X302801969Y-260759757D02*
X302730540Y-260831185D01*
X304087683Y-261688328D02*
X304087683Y-260688328D01*
X304087683Y-260831185D02*
X304159112Y-260759757D01*
X304159112Y-260759757D02*
X304301969Y-260688328D01*
X304301969Y-260688328D02*
X304516255Y-260688328D01*
X304516255Y-260688328D02*
X304659112Y-260759757D01*
X304659112Y-260759757D02*
X304730541Y-260902614D01*
X304730541Y-260902614D02*
X304730541Y-261688328D01*
X304730541Y-260902614D02*
X304801969Y-260759757D01*
X304801969Y-260759757D02*
X304944826Y-260688328D01*
X304944826Y-260688328D02*
X305159112Y-260688328D01*
X305159112Y-260688328D02*
X305301969Y-260759757D01*
X305301969Y-260759757D02*
X305373398Y-260902614D01*
X305373398Y-260902614D02*
X305373398Y-261688328D01*
X306659112Y-261616900D02*
X306516255Y-261688328D01*
X306516255Y-261688328D02*
X306230541Y-261688328D01*
X306230541Y-261688328D02*
X306087683Y-261616900D01*
X306087683Y-261616900D02*
X306016255Y-261474042D01*
X306016255Y-261474042D02*
X306016255Y-260902614D01*
X306016255Y-260902614D02*
X306087683Y-260759757D01*
X306087683Y-260759757D02*
X306230541Y-260688328D01*
X306230541Y-260688328D02*
X306516255Y-260688328D01*
X306516255Y-260688328D02*
X306659112Y-260759757D01*
X306659112Y-260759757D02*
X306730541Y-260902614D01*
X306730541Y-260902614D02*
X306730541Y-261045471D01*
X306730541Y-261045471D02*
X306016255Y-261188328D01*
X308016255Y-261688328D02*
X308016255Y-260188328D01*
X308016255Y-261616900D02*
X307873397Y-261688328D01*
X307873397Y-261688328D02*
X307587683Y-261688328D01*
X307587683Y-261688328D02*
X307444826Y-261616900D01*
X307444826Y-261616900D02*
X307373397Y-261545471D01*
X307373397Y-261545471D02*
X307301969Y-261402614D01*
X307301969Y-261402614D02*
X307301969Y-260974042D01*
X307301969Y-260974042D02*
X307373397Y-260831185D01*
X307373397Y-260831185D02*
X307444826Y-260759757D01*
X307444826Y-260759757D02*
X307587683Y-260688328D01*
X307587683Y-260688328D02*
X307873397Y-260688328D01*
X307873397Y-260688328D02*
X308016255Y-260759757D01*
X309801969Y-261259757D02*
X310516255Y-261259757D01*
X309659112Y-261688328D02*
X310159112Y-260188328D01*
X310159112Y-260188328D02*
X310659112Y-261688328D01*
X311159111Y-261688328D02*
X311159111Y-260688328D01*
X311159111Y-260831185D02*
X311230540Y-260759757D01*
X311230540Y-260759757D02*
X311373397Y-260688328D01*
X311373397Y-260688328D02*
X311587683Y-260688328D01*
X311587683Y-260688328D02*
X311730540Y-260759757D01*
X311730540Y-260759757D02*
X311801969Y-260902614D01*
X311801969Y-260902614D02*
X311801969Y-261688328D01*
X311801969Y-260902614D02*
X311873397Y-260759757D01*
X311873397Y-260759757D02*
X312016254Y-260688328D01*
X312016254Y-260688328D02*
X312230540Y-260688328D01*
X312230540Y-260688328D02*
X312373397Y-260759757D01*
X312373397Y-260759757D02*
X312444826Y-260902614D01*
X312444826Y-260902614D02*
X312444826Y-261688328D01*
X313159111Y-261688328D02*
X313159111Y-260688328D01*
X313159111Y-260188328D02*
X313087683Y-260259757D01*
X313087683Y-260259757D02*
X313159111Y-260331185D01*
X313159111Y-260331185D02*
X313230540Y-260259757D01*
X313230540Y-260259757D02*
X313159111Y-260188328D01*
X313159111Y-260188328D02*
X313159111Y-260331185D01*
X313873397Y-260688328D02*
X313873397Y-261688328D01*
X313873397Y-260831185D02*
X313944826Y-260759757D01*
X313944826Y-260759757D02*
X314087683Y-260688328D01*
X314087683Y-260688328D02*
X314301969Y-260688328D01*
X314301969Y-260688328D02*
X314444826Y-260759757D01*
X314444826Y-260759757D02*
X314516255Y-260902614D01*
X314516255Y-260902614D02*
X314516255Y-261688328D01*
X316373397Y-261116900D02*
X317516255Y-261116900D01*
X319373397Y-260902614D02*
X319873397Y-260902614D01*
X320087683Y-261688328D02*
X319373397Y-261688328D01*
X319373397Y-261688328D02*
X319373397Y-260188328D01*
X319373397Y-260188328D02*
X320087683Y-260188328D01*
X320730540Y-261688328D02*
X320730540Y-260688328D01*
X320730540Y-260831185D02*
X320801969Y-260759757D01*
X320801969Y-260759757D02*
X320944826Y-260688328D01*
X320944826Y-260688328D02*
X321159112Y-260688328D01*
X321159112Y-260688328D02*
X321301969Y-260759757D01*
X321301969Y-260759757D02*
X321373398Y-260902614D01*
X321373398Y-260902614D02*
X321373398Y-261688328D01*
X321373398Y-260902614D02*
X321444826Y-260759757D01*
X321444826Y-260759757D02*
X321587683Y-260688328D01*
X321587683Y-260688328D02*
X321801969Y-260688328D01*
X321801969Y-260688328D02*
X321944826Y-260759757D01*
X321944826Y-260759757D02*
X322016255Y-260902614D01*
X322016255Y-260902614D02*
X322016255Y-261688328D01*
X322730540Y-261688328D02*
X322730540Y-260188328D01*
X322730540Y-260759757D02*
X322873398Y-260688328D01*
X322873398Y-260688328D02*
X323159112Y-260688328D01*
X323159112Y-260688328D02*
X323301969Y-260759757D01*
X323301969Y-260759757D02*
X323373398Y-260831185D01*
X323373398Y-260831185D02*
X323444826Y-260974042D01*
X323444826Y-260974042D02*
X323444826Y-261402614D01*
X323444826Y-261402614D02*
X323373398Y-261545471D01*
X323373398Y-261545471D02*
X323301969Y-261616900D01*
X323301969Y-261616900D02*
X323159112Y-261688328D01*
X323159112Y-261688328D02*
X322873398Y-261688328D01*
X322873398Y-261688328D02*
X322730540Y-261616900D01*
X324659112Y-261616900D02*
X324516255Y-261688328D01*
X324516255Y-261688328D02*
X324230541Y-261688328D01*
X324230541Y-261688328D02*
X324087683Y-261616900D01*
X324087683Y-261616900D02*
X324016255Y-261474042D01*
X324016255Y-261474042D02*
X324016255Y-260902614D01*
X324016255Y-260902614D02*
X324087683Y-260759757D01*
X324087683Y-260759757D02*
X324230541Y-260688328D01*
X324230541Y-260688328D02*
X324516255Y-260688328D01*
X324516255Y-260688328D02*
X324659112Y-260759757D01*
X324659112Y-260759757D02*
X324730541Y-260902614D01*
X324730541Y-260902614D02*
X324730541Y-261045471D01*
X324730541Y-261045471D02*
X324016255Y-261188328D01*
X326016255Y-261688328D02*
X326016255Y-260188328D01*
X326016255Y-261616900D02*
X325873397Y-261688328D01*
X325873397Y-261688328D02*
X325587683Y-261688328D01*
X325587683Y-261688328D02*
X325444826Y-261616900D01*
X325444826Y-261616900D02*
X325373397Y-261545471D01*
X325373397Y-261545471D02*
X325301969Y-261402614D01*
X325301969Y-261402614D02*
X325301969Y-260974042D01*
X325301969Y-260974042D02*
X325373397Y-260831185D01*
X325373397Y-260831185D02*
X325444826Y-260759757D01*
X325444826Y-260759757D02*
X325587683Y-260688328D01*
X325587683Y-260688328D02*
X325873397Y-260688328D01*
X325873397Y-260688328D02*
X326016255Y-260759757D01*
X327373398Y-261688328D02*
X327373398Y-260188328D01*
X327373398Y-261616900D02*
X327230540Y-261688328D01*
X327230540Y-261688328D02*
X326944826Y-261688328D01*
X326944826Y-261688328D02*
X326801969Y-261616900D01*
X326801969Y-261616900D02*
X326730540Y-261545471D01*
X326730540Y-261545471D02*
X326659112Y-261402614D01*
X326659112Y-261402614D02*
X326659112Y-260974042D01*
X326659112Y-260974042D02*
X326730540Y-260831185D01*
X326730540Y-260831185D02*
X326801969Y-260759757D01*
X326801969Y-260759757D02*
X326944826Y-260688328D01*
X326944826Y-260688328D02*
X327230540Y-260688328D01*
X327230540Y-260688328D02*
X327373398Y-260759757D01*
X328659112Y-261616900D02*
X328516255Y-261688328D01*
X328516255Y-261688328D02*
X328230541Y-261688328D01*
X328230541Y-261688328D02*
X328087683Y-261616900D01*
X328087683Y-261616900D02*
X328016255Y-261474042D01*
X328016255Y-261474042D02*
X328016255Y-260902614D01*
X328016255Y-260902614D02*
X328087683Y-260759757D01*
X328087683Y-260759757D02*
X328230541Y-260688328D01*
X328230541Y-260688328D02*
X328516255Y-260688328D01*
X328516255Y-260688328D02*
X328659112Y-260759757D01*
X328659112Y-260759757D02*
X328730541Y-260902614D01*
X328730541Y-260902614D02*
X328730541Y-261045471D01*
X328730541Y-261045471D02*
X328016255Y-261188328D01*
X330016255Y-261688328D02*
X330016255Y-260188328D01*
X330016255Y-261616900D02*
X329873397Y-261688328D01*
X329873397Y-261688328D02*
X329587683Y-261688328D01*
X329587683Y-261688328D02*
X329444826Y-261616900D01*
X329444826Y-261616900D02*
X329373397Y-261545471D01*
X329373397Y-261545471D02*
X329301969Y-261402614D01*
X329301969Y-261402614D02*
X329301969Y-260974042D01*
X329301969Y-260974042D02*
X329373397Y-260831185D01*
X329373397Y-260831185D02*
X329444826Y-260759757D01*
X329444826Y-260759757D02*
X329587683Y-260688328D01*
X329587683Y-260688328D02*
X329873397Y-260688328D01*
X329873397Y-260688328D02*
X330016255Y-260759757D01*
X331801969Y-261616900D02*
X332016255Y-261688328D01*
X332016255Y-261688328D02*
X332373397Y-261688328D01*
X332373397Y-261688328D02*
X332516255Y-261616900D01*
X332516255Y-261616900D02*
X332587683Y-261545471D01*
X332587683Y-261545471D02*
X332659112Y-261402614D01*
X332659112Y-261402614D02*
X332659112Y-261259757D01*
X332659112Y-261259757D02*
X332587683Y-261116900D01*
X332587683Y-261116900D02*
X332516255Y-261045471D01*
X332516255Y-261045471D02*
X332373397Y-260974042D01*
X332373397Y-260974042D02*
X332087683Y-260902614D01*
X332087683Y-260902614D02*
X331944826Y-260831185D01*
X331944826Y-260831185D02*
X331873397Y-260759757D01*
X331873397Y-260759757D02*
X331801969Y-260616900D01*
X331801969Y-260616900D02*
X331801969Y-260474042D01*
X331801969Y-260474042D02*
X331873397Y-260331185D01*
X331873397Y-260331185D02*
X331944826Y-260259757D01*
X331944826Y-260259757D02*
X332087683Y-260188328D01*
X332087683Y-260188328D02*
X332444826Y-260188328D01*
X332444826Y-260188328D02*
X332659112Y-260259757D01*
X333159111Y-260688328D02*
X333516254Y-261688328D01*
X333873397Y-260688328D02*
X333516254Y-261688328D01*
X333516254Y-261688328D02*
X333373397Y-262045471D01*
X333373397Y-262045471D02*
X333301968Y-262116900D01*
X333301968Y-262116900D02*
X333159111Y-262188328D01*
X334373397Y-261616900D02*
X334516254Y-261688328D01*
X334516254Y-261688328D02*
X334801968Y-261688328D01*
X334801968Y-261688328D02*
X334944825Y-261616900D01*
X334944825Y-261616900D02*
X335016254Y-261474042D01*
X335016254Y-261474042D02*
X335016254Y-261402614D01*
X335016254Y-261402614D02*
X334944825Y-261259757D01*
X334944825Y-261259757D02*
X334801968Y-261188328D01*
X334801968Y-261188328D02*
X334587683Y-261188328D01*
X334587683Y-261188328D02*
X334444825Y-261116900D01*
X334444825Y-261116900D02*
X334373397Y-260974042D01*
X334373397Y-260974042D02*
X334373397Y-260902614D01*
X334373397Y-260902614D02*
X334444825Y-260759757D01*
X334444825Y-260759757D02*
X334587683Y-260688328D01*
X334587683Y-260688328D02*
X334801968Y-260688328D01*
X334801968Y-260688328D02*
X334944825Y-260759757D01*
X335444826Y-260688328D02*
X336016254Y-260688328D01*
X335659111Y-260188328D02*
X335659111Y-261474042D01*
X335659111Y-261474042D02*
X335730540Y-261616900D01*
X335730540Y-261616900D02*
X335873397Y-261688328D01*
X335873397Y-261688328D02*
X336016254Y-261688328D01*
X337087683Y-261616900D02*
X336944826Y-261688328D01*
X336944826Y-261688328D02*
X336659112Y-261688328D01*
X336659112Y-261688328D02*
X336516254Y-261616900D01*
X336516254Y-261616900D02*
X336444826Y-261474042D01*
X336444826Y-261474042D02*
X336444826Y-260902614D01*
X336444826Y-260902614D02*
X336516254Y-260759757D01*
X336516254Y-260759757D02*
X336659112Y-260688328D01*
X336659112Y-260688328D02*
X336944826Y-260688328D01*
X336944826Y-260688328D02*
X337087683Y-260759757D01*
X337087683Y-260759757D02*
X337159112Y-260902614D01*
X337159112Y-260902614D02*
X337159112Y-261045471D01*
X337159112Y-261045471D02*
X336444826Y-261188328D01*
X337801968Y-261688328D02*
X337801968Y-260688328D01*
X337801968Y-260831185D02*
X337873397Y-260759757D01*
X337873397Y-260759757D02*
X338016254Y-260688328D01*
X338016254Y-260688328D02*
X338230540Y-260688328D01*
X338230540Y-260688328D02*
X338373397Y-260759757D01*
X338373397Y-260759757D02*
X338444826Y-260902614D01*
X338444826Y-260902614D02*
X338444826Y-261688328D01*
X338444826Y-260902614D02*
X338516254Y-260759757D01*
X338516254Y-260759757D02*
X338659111Y-260688328D01*
X338659111Y-260688328D02*
X338873397Y-260688328D01*
X338873397Y-260688328D02*
X339016254Y-260759757D01*
X339016254Y-260759757D02*
X339087683Y-260902614D01*
X339087683Y-260902614D02*
X339087683Y-261688328D01*
X339730540Y-261616900D02*
X339873397Y-261688328D01*
X339873397Y-261688328D02*
X340159111Y-261688328D01*
X340159111Y-261688328D02*
X340301968Y-261616900D01*
X340301968Y-261616900D02*
X340373397Y-261474042D01*
X340373397Y-261474042D02*
X340373397Y-261402614D01*
X340373397Y-261402614D02*
X340301968Y-261259757D01*
X340301968Y-261259757D02*
X340159111Y-261188328D01*
X340159111Y-261188328D02*
X339944826Y-261188328D01*
X339944826Y-261188328D02*
X339801968Y-261116900D01*
X339801968Y-261116900D02*
X339730540Y-260974042D01*
X339730540Y-260974042D02*
X339730540Y-260902614D01*
X339730540Y-260902614D02*
X339801968Y-260759757D01*
X339801968Y-260759757D02*
X339944826Y-260688328D01*
X339944826Y-260688328D02*
X340159111Y-260688328D01*
X340159111Y-260688328D02*
X340301968Y-260759757D01*
X343373397Y-261688328D02*
X343301969Y-261688328D01*
X343301969Y-261688328D02*
X343159111Y-261616900D01*
X343159111Y-261616900D02*
X342944826Y-261402614D01*
X342944826Y-261402614D02*
X342587683Y-260974042D01*
X342587683Y-260974042D02*
X342444826Y-260759757D01*
X342444826Y-260759757D02*
X342373397Y-260545471D01*
X342373397Y-260545471D02*
X342373397Y-260402614D01*
X342373397Y-260402614D02*
X342444826Y-260259757D01*
X342444826Y-260259757D02*
X342587683Y-260188328D01*
X342587683Y-260188328D02*
X342659111Y-260188328D01*
X342659111Y-260188328D02*
X342801969Y-260259757D01*
X342801969Y-260259757D02*
X342873397Y-260402614D01*
X342873397Y-260402614D02*
X342873397Y-260474042D01*
X342873397Y-260474042D02*
X342801969Y-260616900D01*
X342801969Y-260616900D02*
X342730540Y-260688328D01*
X342730540Y-260688328D02*
X342301969Y-260974042D01*
X342301969Y-260974042D02*
X342230540Y-261045471D01*
X342230540Y-261045471D02*
X342159111Y-261188328D01*
X342159111Y-261188328D02*
X342159111Y-261402614D01*
X342159111Y-261402614D02*
X342230540Y-261545471D01*
X342230540Y-261545471D02*
X342301969Y-261616900D01*
X342301969Y-261616900D02*
X342444826Y-261688328D01*
X342444826Y-261688328D02*
X342659111Y-261688328D01*
X342659111Y-261688328D02*
X342801969Y-261616900D01*
X342801969Y-261616900D02*
X342873397Y-261545471D01*
X342873397Y-261545471D02*
X343087683Y-261259757D01*
X343087683Y-261259757D02*
X343159111Y-261045471D01*
X343159111Y-261045471D02*
X343159111Y-260902614D01*
X345159111Y-260902614D02*
X345659111Y-260902614D01*
X345873397Y-261688328D02*
X345159111Y-261688328D01*
X345159111Y-261688328D02*
X345159111Y-260188328D01*
X345159111Y-260188328D02*
X345873397Y-260188328D01*
X346730540Y-261688328D02*
X346587683Y-261616900D01*
X346587683Y-261616900D02*
X346516254Y-261474042D01*
X346516254Y-261474042D02*
X346516254Y-260188328D01*
X347873397Y-261616900D02*
X347730540Y-261688328D01*
X347730540Y-261688328D02*
X347444826Y-261688328D01*
X347444826Y-261688328D02*
X347301968Y-261616900D01*
X347301968Y-261616900D02*
X347230540Y-261474042D01*
X347230540Y-261474042D02*
X347230540Y-260902614D01*
X347230540Y-260902614D02*
X347301968Y-260759757D01*
X347301968Y-260759757D02*
X347444826Y-260688328D01*
X347444826Y-260688328D02*
X347730540Y-260688328D01*
X347730540Y-260688328D02*
X347873397Y-260759757D01*
X347873397Y-260759757D02*
X347944826Y-260902614D01*
X347944826Y-260902614D02*
X347944826Y-261045471D01*
X347944826Y-261045471D02*
X347230540Y-261188328D01*
X349230540Y-261616900D02*
X349087682Y-261688328D01*
X349087682Y-261688328D02*
X348801968Y-261688328D01*
X348801968Y-261688328D02*
X348659111Y-261616900D01*
X348659111Y-261616900D02*
X348587682Y-261545471D01*
X348587682Y-261545471D02*
X348516254Y-261402614D01*
X348516254Y-261402614D02*
X348516254Y-260974042D01*
X348516254Y-260974042D02*
X348587682Y-260831185D01*
X348587682Y-260831185D02*
X348659111Y-260759757D01*
X348659111Y-260759757D02*
X348801968Y-260688328D01*
X348801968Y-260688328D02*
X349087682Y-260688328D01*
X349087682Y-260688328D02*
X349230540Y-260759757D01*
X349659111Y-260688328D02*
X350230539Y-260688328D01*
X349873396Y-260188328D02*
X349873396Y-261474042D01*
X349873396Y-261474042D02*
X349944825Y-261616900D01*
X349944825Y-261616900D02*
X350087682Y-261688328D01*
X350087682Y-261688328D02*
X350230539Y-261688328D01*
X350730539Y-261688328D02*
X350730539Y-260688328D01*
X350730539Y-260974042D02*
X350801968Y-260831185D01*
X350801968Y-260831185D02*
X350873397Y-260759757D01*
X350873397Y-260759757D02*
X351016254Y-260688328D01*
X351016254Y-260688328D02*
X351159111Y-260688328D01*
X351873396Y-261688328D02*
X351730539Y-261616900D01*
X351730539Y-261616900D02*
X351659110Y-261545471D01*
X351659110Y-261545471D02*
X351587682Y-261402614D01*
X351587682Y-261402614D02*
X351587682Y-260974042D01*
X351587682Y-260974042D02*
X351659110Y-260831185D01*
X351659110Y-260831185D02*
X351730539Y-260759757D01*
X351730539Y-260759757D02*
X351873396Y-260688328D01*
X351873396Y-260688328D02*
X352087682Y-260688328D01*
X352087682Y-260688328D02*
X352230539Y-260759757D01*
X352230539Y-260759757D02*
X352301968Y-260831185D01*
X352301968Y-260831185D02*
X352373396Y-260974042D01*
X352373396Y-260974042D02*
X352373396Y-261402614D01*
X352373396Y-261402614D02*
X352301968Y-261545471D01*
X352301968Y-261545471D02*
X352230539Y-261616900D01*
X352230539Y-261616900D02*
X352087682Y-261688328D01*
X352087682Y-261688328D02*
X351873396Y-261688328D01*
X353016253Y-260688328D02*
X353016253Y-261688328D01*
X353016253Y-260831185D02*
X353087682Y-260759757D01*
X353087682Y-260759757D02*
X353230539Y-260688328D01*
X353230539Y-260688328D02*
X353444825Y-260688328D01*
X353444825Y-260688328D02*
X353587682Y-260759757D01*
X353587682Y-260759757D02*
X353659111Y-260902614D01*
X353659111Y-260902614D02*
X353659111Y-261688328D01*
X354373396Y-261688328D02*
X354373396Y-260688328D01*
X354373396Y-260188328D02*
X354301968Y-260259757D01*
X354301968Y-260259757D02*
X354373396Y-260331185D01*
X354373396Y-260331185D02*
X354444825Y-260259757D01*
X354444825Y-260259757D02*
X354373396Y-260188328D01*
X354373396Y-260188328D02*
X354373396Y-260331185D01*
X355730540Y-261616900D02*
X355587682Y-261688328D01*
X355587682Y-261688328D02*
X355301968Y-261688328D01*
X355301968Y-261688328D02*
X355159111Y-261616900D01*
X355159111Y-261616900D02*
X355087682Y-261545471D01*
X355087682Y-261545471D02*
X355016254Y-261402614D01*
X355016254Y-261402614D02*
X355016254Y-260974042D01*
X355016254Y-260974042D02*
X355087682Y-260831185D01*
X355087682Y-260831185D02*
X355159111Y-260759757D01*
X355159111Y-260759757D02*
X355301968Y-260688328D01*
X355301968Y-260688328D02*
X355587682Y-260688328D01*
X355587682Y-260688328D02*
X355730540Y-260759757D01*
X356301968Y-261616900D02*
X356444825Y-261688328D01*
X356444825Y-261688328D02*
X356730539Y-261688328D01*
X356730539Y-261688328D02*
X356873396Y-261616900D01*
X356873396Y-261616900D02*
X356944825Y-261474042D01*
X356944825Y-261474042D02*
X356944825Y-261402614D01*
X356944825Y-261402614D02*
X356873396Y-261259757D01*
X356873396Y-261259757D02*
X356730539Y-261188328D01*
X356730539Y-261188328D02*
X356516254Y-261188328D01*
X356516254Y-261188328D02*
X356373396Y-261116900D01*
X356373396Y-261116900D02*
X356301968Y-260974042D01*
X356301968Y-260974042D02*
X356301968Y-260902614D01*
X356301968Y-260902614D02*
X356373396Y-260759757D01*
X356373396Y-260759757D02*
X356516254Y-260688328D01*
X356516254Y-260688328D02*
X356730539Y-260688328D01*
X356730539Y-260688328D02*
X356873396Y-260759757D01*
X358730539Y-260902614D02*
X359230539Y-260902614D01*
X359444825Y-261688328D02*
X358730539Y-261688328D01*
X358730539Y-261688328D02*
X358730539Y-260188328D01*
X358730539Y-260188328D02*
X359444825Y-260188328D01*
X360087682Y-260688328D02*
X360087682Y-261688328D01*
X360087682Y-260831185D02*
X360159111Y-260759757D01*
X360159111Y-260759757D02*
X360301968Y-260688328D01*
X360301968Y-260688328D02*
X360516254Y-260688328D01*
X360516254Y-260688328D02*
X360659111Y-260759757D01*
X360659111Y-260759757D02*
X360730540Y-260902614D01*
X360730540Y-260902614D02*
X360730540Y-261688328D01*
X362087683Y-260688328D02*
X362087683Y-261902614D01*
X362087683Y-261902614D02*
X362016254Y-262045471D01*
X362016254Y-262045471D02*
X361944825Y-262116900D01*
X361944825Y-262116900D02*
X361801968Y-262188328D01*
X361801968Y-262188328D02*
X361587683Y-262188328D01*
X361587683Y-262188328D02*
X361444825Y-262116900D01*
X362087683Y-261616900D02*
X361944825Y-261688328D01*
X361944825Y-261688328D02*
X361659111Y-261688328D01*
X361659111Y-261688328D02*
X361516254Y-261616900D01*
X361516254Y-261616900D02*
X361444825Y-261545471D01*
X361444825Y-261545471D02*
X361373397Y-261402614D01*
X361373397Y-261402614D02*
X361373397Y-260974042D01*
X361373397Y-260974042D02*
X361444825Y-260831185D01*
X361444825Y-260831185D02*
X361516254Y-260759757D01*
X361516254Y-260759757D02*
X361659111Y-260688328D01*
X361659111Y-260688328D02*
X361944825Y-260688328D01*
X361944825Y-260688328D02*
X362087683Y-260759757D01*
X362801968Y-261688328D02*
X362801968Y-260688328D01*
X362801968Y-260188328D02*
X362730540Y-260259757D01*
X362730540Y-260259757D02*
X362801968Y-260331185D01*
X362801968Y-260331185D02*
X362873397Y-260259757D01*
X362873397Y-260259757D02*
X362801968Y-260188328D01*
X362801968Y-260188328D02*
X362801968Y-260331185D01*
X363516254Y-260688328D02*
X363516254Y-261688328D01*
X363516254Y-260831185D02*
X363587683Y-260759757D01*
X363587683Y-260759757D02*
X363730540Y-260688328D01*
X363730540Y-260688328D02*
X363944826Y-260688328D01*
X363944826Y-260688328D02*
X364087683Y-260759757D01*
X364087683Y-260759757D02*
X364159112Y-260902614D01*
X364159112Y-260902614D02*
X364159112Y-261688328D01*
X365444826Y-261616900D02*
X365301969Y-261688328D01*
X365301969Y-261688328D02*
X365016255Y-261688328D01*
X365016255Y-261688328D02*
X364873397Y-261616900D01*
X364873397Y-261616900D02*
X364801969Y-261474042D01*
X364801969Y-261474042D02*
X364801969Y-260902614D01*
X364801969Y-260902614D02*
X364873397Y-260759757D01*
X364873397Y-260759757D02*
X365016255Y-260688328D01*
X365016255Y-260688328D02*
X365301969Y-260688328D01*
X365301969Y-260688328D02*
X365444826Y-260759757D01*
X365444826Y-260759757D02*
X365516255Y-260902614D01*
X365516255Y-260902614D02*
X365516255Y-261045471D01*
X365516255Y-261045471D02*
X364801969Y-261188328D01*
X366730540Y-261616900D02*
X366587683Y-261688328D01*
X366587683Y-261688328D02*
X366301969Y-261688328D01*
X366301969Y-261688328D02*
X366159111Y-261616900D01*
X366159111Y-261616900D02*
X366087683Y-261474042D01*
X366087683Y-261474042D02*
X366087683Y-260902614D01*
X366087683Y-260902614D02*
X366159111Y-260759757D01*
X366159111Y-260759757D02*
X366301969Y-260688328D01*
X366301969Y-260688328D02*
X366587683Y-260688328D01*
X366587683Y-260688328D02*
X366730540Y-260759757D01*
X366730540Y-260759757D02*
X366801969Y-260902614D01*
X366801969Y-260902614D02*
X366801969Y-261045471D01*
X366801969Y-261045471D02*
X366087683Y-261188328D01*
X367444825Y-261688328D02*
X367444825Y-260688328D01*
X367444825Y-260974042D02*
X367516254Y-260831185D01*
X367516254Y-260831185D02*
X367587683Y-260759757D01*
X367587683Y-260759757D02*
X367730540Y-260688328D01*
X367730540Y-260688328D02*
X367873397Y-260688328D01*
D10*
D11*
X319989000Y-278502200D02*
X319989000Y-281502200D01*
D10*
D11*
X383989000Y-278502200D02*
X383989000Y-285002200D01*
D14*
X147654819Y-67861025D02*
X147654819Y-68402891D01*
X147461295Y-67551387D02*
X147267772Y-68131958D01*
X147267772Y-68131958D02*
X147770933Y-68131958D01*
X149500000Y-76000000D02*
X149500000Y-68413580D01*
X145500000Y-76000000D02*
X145500000Y-68413580D01*
X149500000Y-69000000D02*
X145500000Y-69000000D01*
X149500000Y-69000000D02*
X148373496Y-69586421D01*
X149500000Y-69000000D02*
X148373496Y-68413579D01*
X145500000Y-69000000D02*
X146626504Y-68413579D01*
X145500000Y-69000000D02*
X146626504Y-69586421D01*
X259154819Y-81361025D02*
X259154819Y-81902891D01*
X258961295Y-81051387D02*
X258767772Y-81631958D01*
X258767772Y-81631958D02*
X259270933Y-81631958D01*
X257000000Y-77000000D02*
X257000000Y-83086420D01*
X261000000Y-77000000D02*
X261000000Y-83086420D01*
X257000000Y-82500000D02*
X261000000Y-82500000D01*
X257000000Y-82500000D02*
X258126504Y-81913579D01*
X257000000Y-82500000D02*
X258126504Y-83086421D01*
X261000000Y-82500000D02*
X259873496Y-83086421D01*
X261000000Y-82500000D02*
X259873496Y-81913579D01*
X266664321Y-122389973D02*
X266667031Y-122931833D01*
X266469252Y-122081306D02*
X266278633Y-122662838D01*
X266278633Y-122662838D02*
X266781789Y-122660322D01*
X264502500Y-120999994D02*
X264518131Y-124126121D01*
X268502500Y-120979994D02*
X268518131Y-124106121D01*
X264515199Y-123539708D02*
X268515199Y-123519708D01*
X264515199Y-123539708D02*
X265638757Y-122947662D01*
X264515199Y-123539708D02*
X265644621Y-124120489D01*
X268515199Y-123519708D02*
X267391641Y-124111754D01*
X268515199Y-123519708D02*
X267385777Y-122938927D01*
X259931025Y-118675752D02*
X260472891Y-118675752D01*
X259621387Y-118869276D02*
X260201958Y-119062799D01*
X260201958Y-119062799D02*
X260201958Y-118559638D01*
X260395482Y-118250000D02*
X260434187Y-118211295D01*
X260434187Y-118211295D02*
X260472891Y-118250000D01*
X260472891Y-118250000D02*
X260434187Y-118288704D01*
X260434187Y-118288704D02*
X260395482Y-118250000D01*
X260395482Y-118250000D02*
X260472891Y-118250000D01*
X259660091Y-117475904D02*
X259660091Y-117862952D01*
X259660091Y-117862952D02*
X260047139Y-117901656D01*
X260047139Y-117901656D02*
X260008434Y-117862952D01*
X260008434Y-117862952D02*
X259969729Y-117785542D01*
X259969729Y-117785542D02*
X259969729Y-117592018D01*
X259969729Y-117592018D02*
X260008434Y-117514609D01*
X260008434Y-117514609D02*
X260047139Y-117475904D01*
X260047139Y-117475904D02*
X260124548Y-117437199D01*
X260124548Y-117437199D02*
X260318072Y-117437199D01*
X260318072Y-117437199D02*
X260395482Y-117475904D01*
X260395482Y-117475904D02*
X260434187Y-117514609D01*
X260434187Y-117514609D02*
X260472891Y-117592018D01*
X260472891Y-117592018D02*
X260472891Y-117785542D01*
X260472891Y-117785542D02*
X260434187Y-117862952D01*
X260434187Y-117862952D02*
X260395482Y-117901656D01*
X264000000Y-120500000D02*
X260483580Y-120500000D01*
X264000000Y-116000000D02*
X260483580Y-116000000D01*
X261070000Y-120500000D02*
X261070000Y-116000000D01*
X261070000Y-120500000D02*
X260483579Y-119373496D01*
X261070000Y-120500000D02*
X261656421Y-119373496D01*
X261070000Y-116000000D02*
X261656421Y-117126504D01*
X261070000Y-116000000D02*
X260483579Y-117126504D01*
X141361025Y-74675752D02*
X141902891Y-74675752D01*
X141051387Y-74869276D02*
X141631958Y-75062799D01*
X141631958Y-75062799D02*
X141631958Y-74559638D01*
X141825482Y-74250000D02*
X141864187Y-74211295D01*
X141864187Y-74211295D02*
X141902891Y-74250000D01*
X141902891Y-74250000D02*
X141864187Y-74288704D01*
X141864187Y-74288704D02*
X141825482Y-74250000D01*
X141825482Y-74250000D02*
X141902891Y-74250000D01*
X141090091Y-73475904D02*
X141090091Y-73862952D01*
X141090091Y-73862952D02*
X141477139Y-73901656D01*
X141477139Y-73901656D02*
X141438434Y-73862952D01*
X141438434Y-73862952D02*
X141399729Y-73785542D01*
X141399729Y-73785542D02*
X141399729Y-73592018D01*
X141399729Y-73592018D02*
X141438434Y-73514609D01*
X141438434Y-73514609D02*
X141477139Y-73475904D01*
X141477139Y-73475904D02*
X141554548Y-73437199D01*
X141554548Y-73437199D02*
X141748072Y-73437199D01*
X141748072Y-73437199D02*
X141825482Y-73475904D01*
X141825482Y-73475904D02*
X141864187Y-73514609D01*
X141864187Y-73514609D02*
X141902891Y-73592018D01*
X141902891Y-73592018D02*
X141902891Y-73785542D01*
X141902891Y-73785542D02*
X141864187Y-73862952D01*
X141864187Y-73862952D02*
X141825482Y-73901656D01*
X149000000Y-76500000D02*
X141913580Y-76500000D01*
X149000000Y-72000000D02*
X141913580Y-72000000D01*
X142500000Y-76500000D02*
X142500000Y-72000000D01*
X142500000Y-76500000D02*
X141913579Y-75373496D01*
X142500000Y-76500000D02*
X143086421Y-75373496D01*
X142500000Y-72000000D02*
X143086421Y-73126504D01*
X142500000Y-72000000D02*
X141913579Y-73126504D01*
X263861025Y-74675752D02*
X264402891Y-74675752D01*
X263551387Y-74869276D02*
X264131958Y-75062799D01*
X264131958Y-75062799D02*
X264131958Y-74559638D01*
X264325482Y-74250000D02*
X264364187Y-74211295D01*
X264364187Y-74211295D02*
X264402891Y-74250000D01*
X264402891Y-74250000D02*
X264364187Y-74288704D01*
X264364187Y-74288704D02*
X264325482Y-74250000D01*
X264325482Y-74250000D02*
X264402891Y-74250000D01*
X263590091Y-73475904D02*
X263590091Y-73862952D01*
X263590091Y-73862952D02*
X263977139Y-73901656D01*
X263977139Y-73901656D02*
X263938434Y-73862952D01*
X263938434Y-73862952D02*
X263899729Y-73785542D01*
X263899729Y-73785542D02*
X263899729Y-73592018D01*
X263899729Y-73592018D02*
X263938434Y-73514609D01*
X263938434Y-73514609D02*
X263977139Y-73475904D01*
X263977139Y-73475904D02*
X264054548Y-73437199D01*
X264054548Y-73437199D02*
X264248072Y-73437199D01*
X264248072Y-73437199D02*
X264325482Y-73475904D01*
X264325482Y-73475904D02*
X264364187Y-73514609D01*
X264364187Y-73514609D02*
X264402891Y-73592018D01*
X264402891Y-73592018D02*
X264402891Y-73785542D01*
X264402891Y-73785542D02*
X264364187Y-73862952D01*
X264364187Y-73862952D02*
X264325482Y-73901656D01*
X257500000Y-76500000D02*
X265586420Y-76500000D01*
X257500000Y-72000000D02*
X265586420Y-72000000D01*
X265000000Y-76500000D02*
X265000000Y-72000000D01*
X265000000Y-76500000D02*
X264413579Y-75373496D01*
X265000000Y-76500000D02*
X265586421Y-75373496D01*
X265000000Y-72000000D02*
X265586421Y-73126504D01*
X265000000Y-72000000D02*
X264413579Y-73126504D01*
D15*
X268500000Y-205000000D02*
X218000000Y-205000000D01*
X218000000Y-205000000D02*
X172000000Y-205000000D01*
X268500000Y-179000000D02*
X268500000Y-116000000D01*
X172000000Y-205000000D02*
X138000000Y-205000000D01*
X145500000Y-133000000D02*
X145500000Y-117250000D01*
X261000000Y-116000000D02*
X261000000Y-72000000D01*
X148000000Y-72000000D02*
X164000000Y-72000000D01*
X138000000Y-133000000D02*
X145500000Y-133000000D01*
X268500000Y-116000000D02*
X261000000Y-116000000D01*
X138000000Y-205000000D02*
X138000000Y-186000000D01*
X138000000Y-186000000D02*
X138000000Y-133000000D01*
X268500000Y-205000000D02*
X268500000Y-179000000D01*
X261000000Y-72000000D02*
X164000000Y-72000000D01*
X145500000Y-117250000D02*
X145500000Y-72000000D01*
X145500000Y-72000000D02*
X148000000Y-72000000D01*
M02*
