M48
; DRILL file {KiCad 9.0.1} date 2025-05-27T23:19:47-0600
; FORMAT={-:-/ absolute / metric / decimal}
; #@! TF.CreationDate,2025-05-27T23:19:47-06:00
; #@! TF.GenerationSoftware,Kicad,Pcbnew,9.0.1
; #@! TF.FileFunction,Plated,1,4,PTH
FMAT,2
METRIC
; #@! TA.AperFunction,Plated,PTH,ViaDrill
T1C0.330
; #@! TA.AperFunction,Plated,PTH,ComponentDrill
T2C0.700
; #@! TA.AperFunction,Plated,PTH,ComponentDrill
T3C0.850
; #@! TA.AperFunction,Plated,PTH,ComponentDrill
T4C0.900
; #@! TA.AperFunction,Plated,PTH,ComponentDrill
T5C1.000
; #@! TA.AperFunction,Plated,PTH,ComponentDrill
T6C1.080
; #@! TA.AperFunction,Plated,PTH,ComponentDrill
T7C1.100
; #@! TA.AperFunction,Plated,PTH,ComponentDrill
T8C1.200
; #@! TA.AperFunction,Plated,PTH,ComponentDrill
T9C1.300
; #@! TA.AperFunction,Plated,PTH,ComponentDrill
T10C2.300
; #@! TA.AperFunction,Plated,PTH,ComponentDrill
T11C3.200
; #@! TA.AperFunction,Plated,PTH,ComponentDrill
T12C4.550
%
G90
G05
T1
X157.35Y-166.05
X161.85Y-168.45
X165.7Y-161.7
X166.0Y-152.5
X168.0Y-161.7
X175.2Y-153.057
X175.3Y-141.25
X176.1Y-168.7
X176.65Y-142.0
X177.4Y-173.857
X178.3Y-156.5
X179.6Y-164.9
X181.2Y-157.05
X185.05Y-157.55
X188.493Y-151.4
X195.96Y-180.9
X207.35Y-148.65
X217.9Y-142.05
X230.25Y-169.8
X245.55Y-109.15
X252.1Y-126.15
X253.25Y-105.65
T2
X151.0Y-187.96
X151.0Y-193.04
X157.46Y-174.5
X162.0Y-187.96
X162.0Y-193.04
X162.54Y-174.5
X163.0Y-145.42
X163.0Y-150.5
X163.0Y-156.46
X163.0Y-161.54
X166.46Y-164.0
X169.0Y-145.46
X169.0Y-150.54
X171.54Y-164.0
X175.0Y-145.42
X175.0Y-150.5
X175.0Y-156.46
X175.0Y-161.54
T3
X172.522Y-89.107
X175.062Y-89.107
X177.602Y-89.107
X180.142Y-89.107
X181.666Y-137.367
X182.682Y-89.107
X184.206Y-137.367
X185.222Y-89.107
X186.746Y-137.367
X187.762Y-89.107
X189.286Y-137.367
X190.302Y-89.107
X191.826Y-137.367
X192.842Y-89.107
X194.366Y-137.367
X195.382Y-89.107
X196.906Y-137.367
X199.446Y-89.107
X199.446Y-137.367
X201.986Y-89.107
X204.526Y-89.107
X204.526Y-137.367
X207.066Y-89.107
X207.066Y-137.367
X209.606Y-89.107
X209.606Y-137.367
X212.146Y-89.107
X212.146Y-137.367
X214.686Y-89.107
X214.686Y-137.367
X217.226Y-89.107
X217.226Y-137.367
X219.766Y-137.367
X222.306Y-89.107
X222.306Y-137.367
X224.846Y-89.107
X227.386Y-89.107
X227.386Y-137.367
X229.926Y-89.107
X229.926Y-137.367
X232.466Y-89.107
X232.466Y-137.367
X235.006Y-89.107
X235.006Y-137.367
X237.546Y-89.107
X237.546Y-137.367
X240.086Y-89.107
X240.086Y-137.367
X242.626Y-137.367
X245.166Y-137.367
X247.706Y-89.107
X247.706Y-91.647
X247.706Y-94.187
X247.706Y-96.727
X247.706Y-99.267
X247.706Y-101.807
X247.706Y-104.347
X247.706Y-106.887
X247.706Y-109.427
X247.706Y-111.967
X247.706Y-114.507
X247.706Y-117.047
X247.706Y-119.587
X247.706Y-122.127
X247.706Y-124.667
X247.706Y-127.207
X247.706Y-129.747
X247.706Y-132.287
X250.246Y-89.107
X250.246Y-91.647
X250.246Y-94.187
X250.246Y-96.727
X250.246Y-99.267
X250.246Y-101.807
X250.246Y-104.347
X250.246Y-106.887
X250.246Y-109.427
X250.246Y-111.967
X250.246Y-114.507
X250.246Y-117.047
X250.246Y-119.587
X250.246Y-122.127
X250.246Y-124.667
X250.246Y-127.207
X250.246Y-129.747
X250.246Y-132.287
T4
X141.5Y-184.0
X141.5Y-186.5
X141.5Y-189.0
X149.73Y-199.545
X151.5Y-160.75
X151.5Y-163.25
X152.27Y-199.545
X153.5Y-160.75
X153.5Y-163.25
X156.964Y-199.545
X157.23Y-79.335
X159.504Y-199.545
X159.77Y-79.335
X163.23Y-79.335
X165.77Y-79.335
X169.23Y-79.335
X171.77Y-79.335
T5
X142.5Y-172.0
X142.5Y-177.0
X169.0Y-187.0
X174.0Y-187.0
T6
X209.99Y-176.92
X211.26Y-182.0
X212.53Y-176.92
X213.8Y-182.0
X215.07Y-176.92
X216.34Y-182.0
X217.61Y-176.92
X218.88Y-182.0
X220.15Y-176.92
X221.42Y-182.0
X222.69Y-176.92
X223.96Y-182.0
X225.23Y-176.92
X226.5Y-182.0
X227.77Y-176.92
X234.03Y-176.92
X235.3Y-182.0
X236.57Y-176.92
X237.84Y-182.0
X239.11Y-176.92
X240.38Y-182.0
X241.65Y-176.92
X242.92Y-182.0
X244.19Y-176.92
X245.46Y-182.0
X246.73Y-176.92
X248.0Y-182.0
X249.27Y-176.92
X250.54Y-182.0
X251.81Y-176.92
T7
X181.0Y-178.42
X181.0Y-188.58
X185.0Y-146.5
X185.0Y-149.04
X185.0Y-151.58
X185.0Y-162.5
X185.0Y-165.04
X185.0Y-167.58
X193.42Y-176.5
X193.42Y-184.0
X195.96Y-176.5
X195.96Y-184.0
X198.5Y-176.5
X198.5Y-184.0
X232.082Y-149.802
X232.082Y-165.042
T8
X208.75Y-77.75
X211.762Y-149.802
X211.762Y-157.422
X211.762Y-165.042
X212.25Y-77.75
X215.75Y-77.75
X219.25Y-77.75
X262.5Y-128.0
X262.5Y-131.5
X262.5Y-135.0
X262.5Y-138.5
T9
X166.0Y-199.0
X171.0Y-199.0
X176.0Y-199.0
X178.0Y-78.35
X181.0Y-199.0
X183.0Y-78.35
X186.0Y-199.0
X188.0Y-78.35
X191.0Y-199.0
X193.0Y-78.35
X198.0Y-78.35
X203.0Y-78.35
X225.5Y-78.35
X230.5Y-78.35
X232.5Y-199.0
X235.5Y-78.35
X237.5Y-199.0
X240.5Y-78.35
X242.5Y-199.0
X245.5Y-78.35
X247.5Y-199.0
X250.5Y-78.35
X252.5Y-199.0
X257.5Y-199.0
X262.0Y-146.0
X262.0Y-151.0
X262.0Y-156.0
X262.0Y-161.0
X262.0Y-166.0
X262.0Y-171.0
T10
X148.8Y-155.98
X148.8Y-168.02
T11
X142.0Y-137.5
X142.0Y-200.5
X149.5Y-76.5
X257.0Y-76.5
X264.5Y-120.5
X264.5Y-200.5
T12
X262.0Y-180.4
X262.0Y-187.6
T5
G00X145.75Y-146.4
M15
G01X145.75Y-148.6
M16
G05
G00X150.25Y-152.3
M15
G01X148.05Y-152.3
M16
G05
G00X152.05Y-146.2
M15
G01X152.05Y-148.8
M16
G05
M30
