M48
; DRILL file {KiCad 9.0.1} date 2025-05-27T23:19:49-0600
; FORMAT={-:-/ absolute / metric / decimal}
; #@! TF.CreationDate,2025-05-27T23:19:49-06:00
; #@! TF.GenerationSoftware,Kicad,Pcbnew,9.0.1
; #@! TF.FileFunction,Plated,2,4,Blind
FMAT,2
METRIC
; #@! TA.AperFunction,Plated,Buried,ViaDrill
T1C0.330
%
G90
G05
T1
X158.0Y-156.45
X160.55Y-99.15
X185.8Y-120.7
X189.0Y-157.95
X194.25Y-139.3
X200.807Y-182.5
X202.607Y-183.1
X212.8Y-184.1
X215.05Y-183.65
X216.25Y-112.8
X216.55Y-96.6
X216.95Y-85.8
X217.1Y-112.3
X218.8Y-85.6
X223.15Y-85.0
X223.6Y-168.4
X225.5Y-81.4
X226.95Y-84.85
X227.45Y-171.507
X227.66Y-168.14
X229.2Y-183.1
X233.45Y-120.857
X236.5Y-129.85
X238.2Y-94.25
X238.3Y-101.5
X238.45Y-126.35
X243.1Y-170.3
X243.3Y-114.75
X244.55Y-119.15
X244.8Y-114.0
X252.307Y-135.05
X252.6Y-119.5
X253.75Y-92.95
X254.3Y-119.5
X258.55Y-121.45
X259.5Y-95.2
M30
